<?xml version="1.0" encoding="utf-8"?><!DOCTYPE svg PUBLIC "-//W3C//DTD SVG 1.1//EN" "http://www.w3.org/Graphics/SVG/1.1/DTD/svg11.dtd"><svg xmlns="http://www.w3.org/2000/svg" xmlns:xlink="http://www.w3.org/1999/xlink" style="display: none"><symbol viewBox="0 0 39 107.7" id="arrow" xmlns="http://www.w3.org/2000/svg"><title>arrow</title><path d="M.6 51.6L35.6.9a1.8 1.8 0 0 1 3.1 0c.9 1.2-.4 2.2-1.3 3.5L3.2 53.9 37 102.2c.9 1.2 2.5 3.3 1.7 4.6a1.8 1.8 0 0 1-3.1 0L.6 56.1a4.2 4.2 0 0 1 0-4.5z"/></symbol><symbol viewBox="0 0 37 37" id="arrow-circ" xmlns="http://www.w3.org/2000/svg"><title>arrow-circ</title><path d="M21.1 13.2a.5.5 0 0 0-.8 0 .6.6 0 0 0 0 .8l3.8 4H11.6a.5.5 0 0 0-.5.5.5.5 0 0 0 .5.6h12.6l-3.8 4a.6.6 0 0 0 0 .8.5.5 0 0 0 .8 0l4.7-4.9a.5.5 0 0 0 0-.8z"/><path d="M18.5.5a18 18 0 1 1-18 18 18 18 0 0 1 18-18z" fill="none"/></symbol><symbol viewBox="0 0 12.1 12.04" id="arrow-circ-down" xmlns="http://www.w3.org/2000/svg"><path fill-rule="evenodd" d="M11.781 8.077c.241-.163.241-.435 0-.605a.798.798 0 0 0-.849 0l-4.353 3.067V.419c0-.236-.267-.424-.601-.424-.335 0-.61.188-.61.424v10.12L1.024 7.472c-.24-.163-.627-.163-.859 0-.24.17-.24.442 0 .605l5.384 3.793a.774.774 0 0 0 .849 0l5.383-3.793z"/></symbol><symbol viewBox="0 0 12.1 12.04" id="arrow-down" xmlns="http://www.w3.org/2000/svg"><path fill-rule="evenodd" d="M11.781 8.077c.241-.163.241-.435 0-.605a.798.798 0 0 0-.849 0l-4.353 3.067V.419c0-.236-.267-.424-.601-.424-.335 0-.61.188-.61.424v10.12L1.024 7.472c-.24-.163-.627-.163-.859 0-.24.17-.24.442 0 .605l5.384 3.793a.774.774 0 0 0 .849 0l5.383-3.793z"/></symbol><symbol viewBox="0 0 451.846 451.847" id="arrow-right" xmlns="http://www.w3.org/2000/svg"><path d="M345.441 248.292L151.154 442.573c-12.359 12.365-32.397 12.365-44.75 0-12.354-12.354-12.354-32.391 0-44.744L278.318 225.92 106.409 54.017c-12.354-12.359-12.354-32.394 0-44.748 12.354-12.359 32.391-12.359 44.75 0l194.287 194.284c6.177 6.18 9.262 14.271 9.262 22.366 0 8.099-3.091 16.196-9.267 22.373z"/></symbol><symbol viewBox="-377 228.7 204.7 105.3" id="c1" xmlns="http://www.w3.org/2000/svg"><path d="M-268 298.4v17h16v-3h8v3h3v-17zM-298 298.4h29v17h-29zM-323.4 299.9c-1.2-.8-2.5-1.4-4-1.7-.8-.2-1.7-.3-2.6-.3-2.4 0-4.7.7-6.5 2-3.1 2.1-5.1 5.6-5.1 9.6 0 6.4 5.2 11.6 11.6 11.6 4.5 0 8.4-2.5 10.3-6.3.8-1.6 1.3-3.4 1.3-5.4.1-3.9-1.9-7.4-5-9.5zm-6.5 16.1c-3.6 0-6.5-2.9-6.5-6.5s2.9-6.5 6.5-6.5 6.5 2.9 6.5 6.5-2.9 6.5-6.5 6.5zM-221.9 297.9c-6.4 0-11.6 5.2-11.6 11.6 0 2 .5 3.9 1.4 5.5 2 3.6 5.8 6.1 10.2 6.1 5.5 0 10.2-3.9 11.3-9.1.2-.8.3-1.7.3-2.5 0-6.4-5.2-11.6-11.6-11.6zm0 18.1c-1.6 0-3.1-.6-4.2-1.6-1.4-1.2-2.3-3-2.3-5 0-3.6 2.9-6.5 6.5-6.5s6.5 2.9 6.5 6.5c0 1.2-.3 2.3-.8 3.2-1.1 2.1-3.2 3.4-5.7 3.4z"/><path d="M-218.4 309.5c0-1.9-1.6-3.5-3.5-3.5s-3.5 1.6-3.5 3.5 1.6 3.5 3.5 3.5 3.5-1.6 3.5-3.5zm-3.5 2.2c-1.2 0-2.2-1-2.2-2.2s1-2.2 2.2-2.2 2.2 1 2.2 2.2-.9 2.2-2.2 2.2zM-326.4 309.5c0-1.9-1.6-3.5-3.5-3.5s-3.5 1.6-3.5 3.5 1.6 3.5 3.5 3.5c2 0 3.5-1.6 3.5-3.5zm-3.5 2.2c-1.2 0-2.2-1-2.2-2.2s1-2.2 2.2-2.2c1.2 0 2.2 1 2.2 2.2s-1 2.2-2.2 2.2z"/><path d="M-189.6 293.8v-21c0-1.3-.3-2.6-.7-3.8l-8-20.5c1.2-.6 1.3-2.4 0-3-6.7-3.4-25.9-4-32.6-4.1-1.3 0-2.4 1-2.4 2.3V283l4.2 6c.2.3.2.8 0 1l-2 2.2H-359s-.3 2.2.4 2.7l9.2 5.4h9.7c.1 0 .2-.4.3-.5.2-.2.3-.4.5-.6.3-.2.5-.5.8-.7l.3-.3c.4-.2.7-.5 1.1-.7.1 0 .1-.1.2-.1.3-.2.6-.3.9-.5.1 0 .2-.1.2-.1.8-.3 1.6-.6 2.4-.7.1 0 .2 0 .3-.1.3-.1.6-.1.9-.1h.4c.4 0 .8-.1 1.3-.1 2.8 0 5.4.8 7.7 2.4 3.7 2.5 5.7 6 5.9 11.4 0 0 2.7 5.7 8.8 5.7h8.7v-18.4h58.7v18.5h5.9c-.8-2.5-1.2-3.8-1.2-5.8 0-7.7 6.5-13.9 14.3-13.6.5 0 1 .1 1.5.1l-3.4-5.1v-45h3.3l14.5 1.1c1.4.2 2.6 1.1 3 2.5l4.6 15.5v36.7c0 2.4-2 4.3-4.3 4.3h-6.6c.3 1.2.5 2.3.5 3.5 0 .9-.1 1.6-.2 2.5h15.3c2.2 0 3.9-1.8 4.1-3.9l1-13c-.1 0-1.6-1.4-1.6-1.4z"/><path d="M-214.8 265.6c-1.1 0-2.1-.7-2.8-1.6l-.8-.8c-.8-1-1.5-2.3-1.5-3.6v-13.1h-2v44.2l3.6 5.7c4.3 1.2 7.7 4.4 9.2 8.6h7.2c1.7 0 3.2-1.4 3.2-3.2v-36.2h-16.1zm2 15.1h-1v-2h-7.1v-1h8.1v3zM-333.9 288.7H-357c-1.2 0-2.1-1-2.1-2.1v-9.8c0-1.2 1-2.1 2.1-2.1h23.1c1.2 0 2.1 1 2.1 2.1v9.8c0 1.1-1 2.1-2.1 2.1zM-302.7 288.7h-23.1c-1.2 0-2.1-1-2.1-2.1v-9.8c0-1.2 1-2.1 2.1-2.1h23.1c1.2 0 2.1 1 2.1 2.1v9.8c0 1.1-.9 2.1-2.1 2.1zM-271.5 288.7h-23.1c-1.2 0-2.1-1-2.1-2.1v-9.8c0-1.2 1-2.1 2.1-2.1h23.1c1.2 0 2.1 1 2.1 2.1v9.8c0 1.1-.9 2.1-2.1 2.1zM-240.3 288.7h-23.1c-1.2 0-2.1-1-2.1-2.1v-9.8c0-1.2 1-2.1 2.1-2.1h23.1c1.2 0 2.1 1 2.1 2.1v9.8c0 1.1-.9 2.1-2.1 2.1z"/></symbol><symbol viewBox="-377 228.7 204.7 105.3" id="c2" xmlns="http://www.w3.org/2000/svg"><path d="M-259.7 303.9V321h16v-3.1h8v3.1h3v-17.1zM-289.6 303.9h28.9V321h-28.9zM-314.9 305.4c-1.2-.8-2.5-1.4-4-1.7-.8-.2-1.7-.3-2.6-.3-2.4 0-4.7.7-6.5 2-3.1 2.1-5.1 5.6-5.1 9.7 0 6.4 5.2 11.7 11.6 11.7 4.5 0 8.4-2.5 10.3-6.3.8-1.6 1.3-3.4 1.3-5.4.1-4.1-1.9-7.6-5-9.7zm-6.5 16.2c-3.6 0-6.5-2.9-6.5-6.5s2.9-6.5 6.5-6.5 6.5 2.9 6.5 6.5-2.9 6.5-6.5 6.5zM-213.7 303.4c-6.4 0-11.6 5.2-11.6 11.7 0 2 .5 3.9 1.4 5.5 2 3.6 5.8 6.1 10.2 6.1 5.5 0 10.2-3.9 11.3-9.2.2-.8.3-1.7.3-2.5 0-6.4-5.2-11.6-11.6-11.6zm0 18.2c-1.6 0-3.1-.6-4.2-1.6-1.4-1.2-2.3-3-2.3-5 0-3.6 2.9-6.5 6.5-6.5s6.5 2.9 6.5 6.5c0 1.2-.3 2.3-.8 3.2-1.1 2.1-3.2 3.4-5.7 3.4z"/><path d="M-210.2 315c0-1.9-1.6-3.5-3.5-3.5s-3.5 1.6-3.5 3.5 1.6 3.5 3.5 3.5 3.5-1.6 3.5-3.5zm-3.5 2.2c-1.2 0-2.2-1-2.2-2.2s1-2.2 2.2-2.2 2.2 1 2.2 2.2-.9 2.2-2.2 2.2zM-317.9 315c0-1.9-1.6-3.5-3.5-3.5s-3.5 1.6-3.5 3.5 1.6 3.5 3.5 3.5c2 0 3.5-1.6 3.5-3.5zm-3.5 2.2c-1.2 0-2.2-1-2.2-2.2s1-2.2 2.2-2.2c1.2 0 2.2 1 2.2 2.2s-1 2.2-2.2 2.2z"/><path d="M-181.4 299.2V278c0-1.3-.3-2.6-.7-3.8l-8-20.6c1.2-.6 1.3-2.4 0-3-6.7-3.4-25.8-4-32.5-4.1-1.3 0-2.4 1-2.4 2.3v39.6l4.2 6c.2.3.2.8 0 1l-2 2.2h-127.6s-.3 2.2.4 2.7l9.2 5.4h9.7c.1 0 .2-.4.3-.5.2-.2.3-.4.5-.6.3-.2.5-.5.8-.7l.3-.3c.4-.2.7-.5 1.1-.7.1 0 .1-.1.2-.1.3-.2.6-.3.9-.5.1 0 .2-.1.2-.1.8-.3 1.6-.6 2.4-.7.1 0 .2 0 .3-.1.3-.1.6-.1.9-.1h.4c.4 0 .8-.1 1.3-.1 2.8 0 5.4.8 7.7 2.4 3.7 2.5 5.7 6 5.9 11.5 0 0 2.7 5.7 8.8 5.7h8.7v-18.5h58.4v18.6h5.9c-.8-2.5-1.2-3.8-1.2-5.8 0-7.7 6.5-14 14.3-13.7.5 0 1 .1 1.5.1l-3.4-5.1v-45.3h3.3l14.5 1.1c1.4.2 2.6 1.1 3 2.5l4.6 15.6v36.9c0 2.4-2 4.3-4.3 4.3h-6.6c.3 1.2.5 2.3.5 3.5 0 .9-.1 1.6-.2 2.5h15.3c2.2 0 3.9-1.8 4.1-3.9l1-13.1c-.3.1-1.7-1.3-1.7-1.3z"/><path d="M-206.6 270.8c-1.1 0-2.1-.7-2.8-1.6l-.8-.8c-.8-1-1.5-2.3-1.5-3.6v-13.2h-2v44.5l3.6 5.7c4.3 1.2 7.7 4.4 9.2 8.7h7.2c1.7 0 3.2-1.4 3.2-3.2v-36.5h-16.1zm2 15.2h-1v-2h-7.1v-1h8.1v3z"/><g><path d="M-225.1 244.8c-.1.1-.2.1-.3.2.1-.1.2-.1.3-.2zM-205.9 243.3c0-.3-.1-.6-.3-.8.2.2.3.5.3.8 0 .4-.2.8-.6 1.1.4-.3.6-.7.6-1.1zM-242 236.4l-14.4 14.7-.1.1.1-.1 14.4-14.7zM-248.9 293.1c0 .1-.1.1-.1.2 0-.1 0-.1.1-.2l23.3-47.8c0-.1.1-.1.1-.2 0 .1-.1.1-.1.2l-23.3 47.8zM-345.7 252.3c0-.1.1-.2.1-.2-.1 0-.1.1-.1.2l-12 25.7s0 .1-.1.1c0 0 0-.1.1-.1l12-25.7z"/><path d="M-206.2 242.4c-.2-.2-.5-.4-.8-.5l-33.9-5.9h-.2H-241.4c-.1 0-.1 0-.2.1-.1 0-.1.1-.2.1s-.1.1-.2.2l-14.4 14.7-.1.1c-.1.1-.2.1-.3.2-.1 0-.2.1-.3.1H-344.5c-.2 0-.4 0-.5.1-.1.1-.2.1-.3.2l-.2.2c-.1.1-.1.2-.1.2l-12.1 25.8s0 .1-.1.1c0 .1-.1.2-.1.3v.6c0 .1.1.2.1.2s0 .1.1.1c0 .1.1.1.2.2l.2.2c.1.1.2.1.2.1l36.1 14c.2.1.3.1.5.1h70.4c.1 0 .1 0 .2-.1.1 0 .2-.1.3-.1.1-.1.2-.1.3-.2l.1-.1c0-.1.1-.1.1-.2l23.3-47.8c0-.1.1-.1.1-.2s.1-.1.1-.1c.1-.1.2-.2.3-.2.2-.1.4-.2.7-.2h17.2c.3 0 .5-.1.8-.2.3-.2.6-.6.6-1.1.1-.4 0-.7-.2-1zm-138 34.3c-2.1-.8-3.1-3.2-2.1-5.3l4.7-10.1c.6-1.4 2-2.3 3.5-2.3h3.9l-8.6 18.2-1.4-.5zm7.1 2.7l9.5-20.4h6.6l-10.7 22.5-5.4-2.1zm16.5 6.4l-5.4-2.1 11.5-24.6h6.5l-12.6 26.7zm6.5.5l12.8-27.3h6.5l-12.9 27.3h-6.4zm13.1 0l12.8-27.3h6.5l-12.9 27.3h-6.4zm13.1 0l12.8-27.3h6.5l-12.9 27.3h-6.4zm13.1 0l12.8-27.2h6.5l-12.9 27.3h-6.4v-.1zm20.1 0h-6.4l12.8-27.3h6.5l-12.9 27.3zM-249.4 293.7c-.1.1-.2.1-.3.1.1 0 .2-.1.3-.1z"/><path d="M-357.8 278.4c0-.1 0-.2.1-.3-.1.1-.1.2-.1.3zM-241.1 236s.1 0 0 0c.1 0 .1 0 0 0zM-250.1 293.9h.2-.2zM-256.7 251.4c.1 0 .2-.1.3-.2-.1.1-.2.1-.3.2zM-224.4 244.6c-.3 0-.5.1-.7.2.2-.1.4-.2.7-.2h17.2c.3 0 .5-.1.8-.2-.2.2-.5.2-.8.2h-17.2z"/></g></symbol><symbol viewBox="0 0 204.7 105.3" id="c3" xmlns="http://www.w3.org/2000/svg"><path d="M109.9 69.4v17.3h16.3v-2h8.1v2h3.1V69.4zM92.6 69.4h16.3v17.3H92.6zM45.3 71.5c-1.2-.8-2.5-1.4-4.1-1.7-.8-.2-1.7-.3-2.5-.3-2.4 0-4.7.7-6.6 2-3.1 2.1-5.1 5.7-5.1 9.7 0 6.5 5.2 11.7 11.7 11.7 4.5 0 8.4-2.5 10.4-6.3.8-1.6 1.3-3.5 1.3-5.4 0-4.1-2-7.7-5.1-9.7zm-6.5 16.1c-3.7 0-6.6-2.9-6.6-6.6 0-3.7 2.9-6.6 6.6-6.6s6.6 2.9 6.6 6.6c0 3.7-3 6.6-6.6 6.6zM156.7 69.4c-6.5 0-11.7 5.2-11.7 11.7 0 2 .5 4 1.4 5.6 2 3.7 5.8 6.1 10.3 6.1 5.6 0 10.3-4 11.4-9.2.2-.8.3-1.6.3-2.5 0-6.5-5.2-11.7-11.7-11.7zm.1 18.2c-1.6 0-3.2-.6-4.3-1.5-1.4-1.2-2.3-3.1-2.3-5 0-3.7 2.9-6.6 6.6-6.6s6.6 2.9 6.6 6.6c0 1.2-.3 2.2-.8 3.3-1.3 1.9-3.4 3.2-5.8 3.2z"/><path d="M160.2 81.1c0-1.9-1.6-3.6-3.6-3.6-1.9 0-3.6 1.6-3.6 3.6s1.6 3.6 3.6 3.6 3.6-1.6 3.6-3.6zm-3.4 2.2c-1.2 0-2.2-1-2.2-2.2 0-1.2 1-2.2 2.2-2.2s2.2 1 2.2 2.2c0 1.2-1 2.2-2.2 2.2zM73.5 81.1c0-1.9-1.6-3.6-3.6-3.6s-3.6 1.6-3.6 3.6 1.6 3.6 3.6 3.6 3.6-1.6 3.6-3.6zM70 83.3c-1.2 0-2.2-1-2.2-2.2 0-1.2 1-2.2 2.2-2.2 1.2 0 2.2 1 2.2 2.2.1 1.2-.9 2.2-2.2 2.2zM42.3 81.1c0-1.9-1.6-3.6-3.6-3.6-1.9 0-3.6 1.6-3.6 3.6s1.6 3.6 3.6 3.6 3.6-1.6 3.6-3.6zm-3.5 2.2c-1.2 0-2.2-1-2.2-2.2 0-1.2 1-2.2 2.2-2.2 1.2 0 2.2 1 2.2 2.2.1 1.2-1 2.2-2.2 2.2z"/><path d="M70 69.4c-6.5 0-11.7 5.2-11.7 11.7 0 2 .5 4 1.4 5.6 2 3.7 5.8 6.1 10.3 6.1 4.5 0 8.2-2.4 10.3-6.1.5-.9.9-1.9 1.1-3.1.2-.8.3-1.6.3-2.5 0-6.5-5.3-11.7-11.7-11.7zm0 18.2c-1.2 0-2.4-.4-3.5-1-.3-.2-.5-.4-.8-.6-1.4-1.2-2.3-3.1-2.3-5 0-3.7 2.9-6.6 6.6-6.6 3.7 0 6.6 2.9 6.6 6.6 0 1.2-.3 2.2-.8 3.3-.5.9-1.3 1.7-2.2 2.3-1.1.7-2.2 1-3.6 1zM143.6 62.5V50.1c-4.1 0-6.2 2.7-6.2 6.2s2.1 6.2 6.2 6.2zM163.8 36.9c-1.1 0-2.1-.7-2.8-1.6l-.8-.8c-.8-1-1.5-2.3-1.5-3.6V17.7h-2v44.6l3.7 5.8c4.3 1.2 7.7 4.5 9.3 8.6h7.3c1.7 0 3.2-1.4 3.2-3.2V36.9h-16.4zm2 15.3h-1v-2h-7.1v-1h8.1v3z"/><path d="M190.6 66.5l-1.4-1.1V44.2c0-1.3-.2-2.6-.7-3.9l-8-20.6c1.2-.6 1.2-2.4 0-3.1-6.7-3.5-26-4.1-32.7-4.2-1.2 0-2.3 1-2.3 2.2v39.7l4.2 6c.2.2.1.6-.1.8l-2 2H74.4V48.3c0-1.2-1-2.2-2.2-2.2h-41c-1.2 0-2.2 1-2.2 2.2V51c0 1.2 1 2.2 2.2 2.2H44c1.2 0 2.2 1 2.2 2.2v7.7h-35c-.3 0-.5.2-.5.4-.1.7-.1 1.9.4 2.3l9.3 5.4h8.5c.1 0 1-1.1 2-1.7.4-.2.7-.5 1.1-.7.1 0 .8-.4 1.1-.5.1 0 1.8-.7 2.6-.8.1 0 .9-.2 1.2-.2.1 0 1.2-.1 1.6-.1 2.7 0 5.5.8 7.7 2.3 3.8 2.5 6 6.8 6 11.4 0 2-.4 3.6-1.2 5.6h6.2c-1.2-3.1-1.5-5.2-.9-9 .6-3.2 2.5-6.1 5.2-7.9 10.6-6.6 21.9 1.1 21.9 11.3 0 1-.1 2-.3 2.9-.2.9-.5 1.6-.9 2.6h9.3V68.3h46.8v18.3h5.8c-1-2.6-1.4-4.4-1.1-7.5.4-4.2 3-7.9 6.8-9.8 4.8-2.4 6.9-2.1 9.1-1.8l-3.3-5.2V16.6h3.1l14.6 1.6c1.4.2 2.6 1.1 3.1 2.5l4.7 15.7v38.3c0 1.6-1.3 2.9-2.9 2.9h-8.3c.3 1 .5 2.3.5 3.6 0 .9-.1 1.5-.2 2.5h15.5c2.1 0 4-1.6 4.2-3.9l1-13c-.2-.1-.3-.2-.3-.3zM68 58.3H52c-.2 0-.5-.1-.6-.3-1.7-1.8-.4-3.8 1.2-3.8h16c.2 0 .5.1.6.3 1.7 1.7.5 3.8-1.2 3.8z"/></symbol><symbol viewBox="0 0 204.7 105.3" id="c4" xmlns="http://www.w3.org/2000/svg"><path d="M92.4 70v17.1h16v-3h7.9v3h2.7V70zM74.8 70h16.6v17.1H74.8zM62.1 71.5c-1.2-.8-2.5-1.4-4-1.7-.8-.2-1.7-.3-2.6-.3-2.4 0-4.7.7-6.5 2-3.1 2.1-5.1 5.6-5.1 9.7 0 6.5 5.2 11.7 11.6 11.7 4.5 0 8.4-2.5 10.3-6.3.8-1.6 1.3-3.4 1.3-5.4.1-4.1-1.9-7.6-5-9.7zm-6.5 16.2c-3.6 0-6.5-2.9-6.5-6.6s2.9-6.6 6.5-6.6 6.5 2.9 6.5 6.6-2.9 6.6-6.5 6.6zM138.4 69.4c-6.4 0-11.6 5.2-11.6 11.7 0 2 .5 3.9 1.4 5.5 2 3.6 5.8 6.1 10.2 6.1 5.5 0 10.2-3.9 11.3-9.2.2-.8.3-1.7.3-2.5 0-6.3-5.2-11.6-11.6-11.6zm0 18.3c-1.6 0-3.1-.6-4.2-1.6-1.4-1.2-2.3-3-2.3-5 0-3.6 2.9-6.6 6.5-6.6s6.5 2.9 6.5 6.6c0 1.2-.3 2.3-.8 3.2-1.1 2.1-3.2 3.4-5.7 3.4z"/><path d="M141.9 81.1c0-1.9-1.6-3.5-3.5-3.5s-3.5 1.6-3.5 3.5 1.6 3.5 3.5 3.5c1.9.1 3.5-1.5 3.5-3.5zm-3.5 2.3c-1.2 0-2.2-1-2.2-2.2s1-2.2 2.2-2.2c1.2 0 2.2 1 2.2 2.2s-.9 2.2-2.2 2.2zM59.1 81.1c0-1.9-1.6-3.5-3.5-3.5s-3.5 1.6-3.5 3.5 1.6 3.5 3.5 3.5c2 .1 3.5-1.5 3.5-3.5zm-3.5 2.3c-1.2 0-2.2-1-2.2-2.2s1-2.2 2.2-2.2 2.2 1 2.2 2.2-1 2.2-2.2 2.2z"/><path d="M170.7 65.3V44.2c0-1.3-.3-2.6-.7-3.8l-8-20.7c1.2-.6 1.3-2.4 0-3-6.7-3.4-25.9-4-32.6-4.1-1.3 0-2.4 1-2.4 2.3v39.6l4.2 6c.2.3.2.8 0 1l-2 2.2h-102s-.3 2.2.4 2.7L38 71.9h7.7c.1 0 .2-.4.3-.5.2-.2.3-.4.5-.6.3-.2.5-.5.8-.7l.3-.3c.4-.2.7-.5 1.1-.7.1 0 .1-.1.2-.1.3-.2.6-.3.9-.5.1 0 .2-.1.2-.1.8-.3 1.6-.6 2.4-.7.1 0 .2 0 .3-.1.3-.1.6-.1.9-.1h.4c.4 0 .8-.1 1.3-.1 2.8 0 5.4.8 7.7 2.4 3.7 2.5 5.7 6 5.9 11.5 0 0 1.9 5.8 4.8 5.7V68.4H120V87h5.9c-.8-2.5-1.2-3.8-1.2-5.8 0-7.8 6.5-14 14.3-13.7.5 0 1 .1 1.5.1l-3.4-5.1V17.1h3.3l14.5 1.1c1.4.2 2.6 1.1 3 2.5l4.6 15.6v37c0 2.4-2 4.3-4.3 4.3h-6.6c.3 1.2.5 2.3.5 3.5 0 .9-.1 1.6-.2 2.5h15.3c2.2 0 3.9-1.8 4.1-3.9l1-13.1c-.1.1-1.6-1.3-1.6-1.3z"/><path d="M145.5 36.9c-1.1 0-2.1-.7-2.8-1.6l-.8-.8c-.8-1-1.5-2.3-1.5-3.6V17.6h-2v44.5l3.6 5.7c4.3 1.2 7.7 4.4 9.2 8.7h7.2c1.7 0 3.2-1.4 3.2-3.2V36.9h-16.1zm0 15.2h-1v-2h-5.1v-1h6.1v3zM119.3 55.4c0 3.5 2.6 6.3 5.8 6.3V49.1c-3.1 0-5.8 2.8-5.8 6.3z"/></symbol><symbol viewBox="-377 228.7 204.7 105.3" id="c5" xmlns="http://www.w3.org/2000/svg"><path d="M-261 305.4v17h16v-2h8v2h3v-17zM-278 305.4h16v17h-16zM-324.5 307.4c-1.2-.8-2.5-1.4-4-1.7-.8-.2-1.7-.3-2.5-.3-2.4 0-4.6.7-6.5 2-3 2.1-5 5.6-5 9.5 0 6.4 5.1 11.5 11.5 11.5 4.4 0 8.3-2.5 10.2-6.2.8-1.6 1.3-3.4 1.3-5.3 0-4-2-7.5-5-9.5zm-6.4 15.9c-3.6 0-6.5-2.9-6.5-6.5s2.9-6.5 6.5-6.5 6.5 2.9 6.5 6.5-3 6.5-6.5 6.5zM-215 305.4c-6.4 0-11.5 5.1-11.5 11.5 0 2 .5 3.9 1.4 5.5 2 3.6 5.7 6 10.1 6 5.5 0 10.1-3.9 11.2-9 .2-.8.3-1.6.3-2.5 0-6.4-5.1-11.5-11.5-11.5zm.1 17.9c-1.6 0-3.1-.6-4.2-1.5-1.4-1.2-2.3-3-2.3-4.9 0-3.6 2.9-6.5 6.5-6.5s6.5 2.9 6.5 6.5c0 1.2-.3 2.2-.8 3.2-1.2 1.9-3.3 3.2-5.7 3.2z"/><path d="M-211.5 316.9c0-1.9-1.6-3.5-3.5-3.5s-3.5 1.6-3.5 3.5 1.6 3.5 3.5 3.5 3.5-1.6 3.5-3.5zm-3.4 2.1c-1.2 0-2.2-1-2.2-2.2 0-1.2 1-2.2 2.2-2.2s2.2 1 2.2 2.2c0 1.2-1 2.2-2.2 2.2zM-296.8 316.9c0-1.9-1.6-3.5-3.5-3.5s-3.5 1.6-3.5 3.5 1.6 3.5 3.5 3.5 3.5-1.6 3.5-3.5zm-3.4 2.1c-1.2 0-2.2-1-2.2-2.2 0-1.2 1-2.2 2.2-2.2 1.2 0 2.2 1 2.2 2.2 0 1.2-1 2.2-2.2 2.2zM-327.5 316.9c0-1.9-1.6-3.5-3.5-3.5s-3.5 1.6-3.5 3.5 1.6 3.5 3.5 3.5 3.5-1.6 3.5-3.5zm-3.4 2.1c-1.2 0-2.2-1-2.2-2.2 0-1.2 1-2.2 2.2-2.2 1.2 0 2.2 1 2.2 2.2 0 1.2-1 2.2-2.2 2.2z"/><path d="M-300.2 305.4c-6.4 0-11.5 5.1-11.5 11.5 0 2 .5 3.9 1.4 5.5 2 3.6 5.7 6 10.1 6 4.4 0 8.1-2.4 10.1-6 .5-.9.9-1.9 1.1-3 .2-.8.3-1.6.3-2.5 0-6.4-5.2-11.5-11.5-11.5zm0 17.9c-1.2 0-2.4-.4-3.4-1-.3-.2-.5-.4-.8-.6-1.4-1.2-2.3-3-2.3-4.9 0-3.6 2.9-6.5 6.5-6.5s6.5 2.9 6.5 6.5c0 1.2-.3 2.2-.8 3.2-.5.9-1.3 1.7-2.2 2.3-1.1.7-2.2 1-3.5 1zM-240 298.6v-12.2c-4 0-6.1 2.7-6.1 6.1s2.1 6.1 6.1 6.1z"/><path d="M-181.6 302.5l-1.4-1.1v-20.8c0-1.3-.2-2.6-.7-3.8l-7.9-20.3c1.2-.6 1.2-2.4 0-3-6.6-3.4-25.6-4-32.2-4.1-1.2 0-2.3 1-2.3 2.2v39l4.1 5.9c.2.2.1.6-.1.8l-2 2h-6l.2-22.6c0-1.8-1.9-2.9-3.5-2l-3.5 2c-.2.1-.3.3-.3.5v22.2h-61.2l-45.8-19-.5-2.5c-.4-1.9-2.3-3-4.1-2.4-1.9.5-3.2 2.2-3.2 4.1v19.7h-6.6s-.3 2.2.4 2.7l9.1 5.3h8.4c.1 0 1-1.1 2-1.7.4-.2.7-.5 1.1-.7.1 0 .8-.4 1.1-.5.1 0 1.8-.7 2.6-.8.1 0 .9-.2 1.2-.2.1 0 1.2-.1 1.6-.1 2.7 0 5.4.8 7.6 2.3 3.7 2.5 5.9 6.7 5.9 11.2 0 2-.4 3.5-1.2 5.5h6.1c-.8-2-1.2-3.6-1.2-5.5 0-7.4 6.1-13.5 13.5-13.5s13.5 6.1 13.5 13.5c0 1-.1 2-.3 2.9s-.5 1.6-.9 2.6h9.1v-18h46v18h5.7c-.8-2-1.2-3.5-1.2-5.5 0-7.4 6.1-13.5 13.5-13.5.8 0 1.5.1 2.2.2l-3.2-5.1v-45h3l14.4 1.6c1.4.2 2.6 1.1 3 2.5l4.6 15.4v36.4c0 2.3-1.8 4.1-4.1 4.1h-6.9c.3 1 .5 2.3.5 3.5 0 .9-.1 1.5-.2 2.5h15.2c2.1 0 3.9-1.6 4.1-3.8l1-12.8c-.1-.1-.2-.2-.2-.3zm-158.6-3.1l-2.3-10.9 23.4 10.9h-21.1z"/><path d="M-328.5 239.3l-5.3-3.9h-31.7l16.4 17.6-6.1 20.3 10.7-1.3 14.7 6.2 20.2-38.5zM-284.9 240.2l-22.3-.5-20.6 39.4 21.4 9.1 25.2-47.8c-1.2-.1-2.5-.2-3.7-.2zM-259.8 245.5c-3-1.4-6.1-2.5-9.4-3.2l-3.6-.8c-2-.4-4-.8-6-1l-25.5 48.5 4.4 1.9c2.7 1.4 8.7 3.9 12.8 5.3.5.2 1.1.4 1.6.5 1 .3 1.9.6 2.9.8l26.6-50.3c-1.2-.6-2.5-1.2-3.8-1.7zM-254.1 248.2l-26.2 49.7c2.1.3 4.3.5 6.6.5 18.6 0 33.7-12.4 33.7-27.7 0-9.2-5.6-17.4-14.1-22.5z"/><g><path d="M-208 273.4c-1.1 0-2.1-.7-2.8-1.6l-.8-.8c-.8-1-1.5-2.3-1.5-3.5v-13h-2v43.9l3.6 5.7c4.2 1.2 7.6 4.4 9.1 8.5h7.2c1.7 0 3.1-1.4 3.1-3.1v-36.1H-208zm2 15h-1v-2h-7v-1h8v3z"/></g></symbol><symbol viewBox="0 0 27 58.6" id="fb" xmlns="http://www.w3.org/2000/svg"><title>fb</title><path d="M25.9 29.2h-8v29.4H5.8V29.2H0V18.9h5.8v-6.7C5.8 7.5 8 0 18 0h9v10h-6.5a2.5 2.5 0 0 0-2.6 2.8v6.1H27zm0 0"/></symbol><symbol viewBox="0 0 113.1 103.3" id="i10" xmlns="http://www.w3.org/2000/svg"><title>Vector Smart Object2</title><path fill="none" stroke="#0450a2" stroke-miterlimit="10" stroke-width="17" d="M64.6 94.7V8.4h40.06v86.3z"/><path d="M52 49.9L27 27.1a2.1 2.1 0 0 0-2.3-.3 1.9 1.9 0 0 0-1.2 1.9v14.6H2.1A2 2 0 0 0 0 45.4v12.5A2 2 0 0 0 2.1 60h21.3v14.6a2 2 0 0 0 1.2 1.9 2 2 0 0 0 2.3-.4L52 53a2.1 2.1 0 0 0 .7-1.6 2.1 2.1 0 0 0-.7-1.5zm0 0"/></symbol><symbol viewBox="0 0 113.1 103.3" id="i11" xmlns="http://www.w3.org/2000/svg"><rect x="41.5" y="31.6" width="86.3" height="40.06" rx="20" ry="20" transform="rotate(-90 84.6 51.6)" fill="none" stroke="#0450a2" stroke-miterlimit="10" stroke-width="17"/><path d="M52 49.9L27 27.1a2.1 2.1 0 0 0-2.3-.3 1.9 1.9 0 0 0-1.2 1.9v14.6H2.1A2 2 0 0 0 0 45.4v12.5A2 2 0 0 0 2.1 60h21.3v14.6a2 2 0 0 0 1.2 1.9 2 2 0 0 0 2.3-.4L52 53a2.1 2.1 0 0 0 .7-1.6 2.1 2.1 0 0 0-.7-1.5zm0 0"/></symbol><symbol viewBox="0 0 9 12" id="i12" xmlns="http://www.w3.org/2000/svg"><path fill-rule="evenodd" d="M6.837 2.751A34.666 34.666 0 0 0 4.71.094a.282.282 0 0 0-.42 0 34.386 34.386 0 0 0-2.127 2.657C.728 4.748 0 6.298 0 7.358 0 9.918 2.019 12 4.5 12S9 9.918 9 7.358c0-1.06-.728-2.61-2.163-4.607zm-1.888 7.747a3.08 3.08 0 0 1-.722.087c-1.732 0-3.141-1.454-3.141-3.24 0-.246.074-.693.424-1.42a.16.16 0 0 1 .192-.086c.076.023.124.1.115.181-.008.07-.012.135-.012.195 0 1.915 1.32 3.578 3.139 3.955a.168.168 0 0 1 .131.162.167.167 0 0 1-.126.166z"/></symbol><symbol viewBox="0 0 186.7 100.1" id="i13" xmlns="http://www.w3.org/2000/svg"><rect x="12.5" y="12.5" width="161.7" height="75.09" rx="35" ry="35" fill="none" stroke="#0450a2" stroke-miterlimit="10" stroke-width="25"/><path fill="none" stroke="#0450a2" stroke-miterlimit="10" stroke-width="25" d="M106.6 12.5L80.1 87.6"/></symbol><symbol viewBox="0 0 12.11 12.11" id="i5" xmlns="http://www.w3.org/2000/svg"><path fill-rule="evenodd" d="M5.9.001A5.997 5.997 0 0 0 .001 6.1 5.997 5.997 0 0 0 6.1 11.999 5.997 5.997 0 0 0 11.999 5.9 5.997 5.997 0 0 0 5.9.001zM2.719 6.055a3.254 3.254 0 0 1 .259-1.332l1.746.97a1.282 1.282 0 0 0 .011.656L3.022 7.376a3.263 3.263 0 0 1-.303-1.321zm2.984 3.213a3.284 3.284 0 0 1-2.319-1.289l1.713-1.028c.159.151.355.262.572.319l.034 1.998zm-.076-4.526a1.315 1.315 0 0 0-.561.337l-1.746-.97a3.281 3.281 0 0 1 2.274-1.365l.033 1.998zm.67-2.01a3.284 3.284 0 0 1 2.319 1.289L6.903 5.049a1.314 1.314 0 0 0-.573-.319l-.033-1.998zm.109 6.524l-.034-1.998c.216-.064.408-.181.562-.337l1.746.97a3.281 3.281 0 0 1-2.274 1.365zm2.616-1.979l-1.746-.97a1.282 1.282 0 0 0-.011-.656l1.713-1.027a3.263 3.263 0 0 1 .044 2.653z"/></symbol><symbol viewBox="0 0 12 11" id="i6" xmlns="http://www.w3.org/2000/svg"><path fill-rule="evenodd" d="M.789 1.507h.114l4.38 9.055A.793.793 0 0 0 6 11a.794.794 0 0 0 .717-.438l4.38-9.055h.114c.436 0 .789-.337.789-.753C12 .337 11.647 0 11.211 0H9.395c-.436 0-.789.337-.789.754 0 .404.334.733.753.751L6 8.449 2.641 1.505c.419-.018.753-.347.753-.751C3.394.337 3.041 0 2.605 0H.789C.353 0 0 .337 0 .754c0 .416.353.753.789.753z"/></symbol><symbol viewBox="0 0 373.9 199.3" id="i7" xmlns="http://www.w3.org/2000/svg"><defs><clipPath id="ara" transform="translate(-90.8 -178.2)"><rect x="81.5" y="81" transform="rotate(-45 277.522 277.447)" fill="none"/></clipPath></defs><title>Vector Smart Object3</title><g clip-path="url(#ara)"><path d="M16.6 199.3h340.8a16.2 16.2 0 0 0 16.6-16.5V16.5C373.1 2.5 362.2 0 357.5 0H16.6C11.8 0 .9 2.5.1 16.5v166.3c.6 13.7 11.8 16.6 16.5 16.5zm16-166.9h26.6v34.8a16.5 16.5 0 0 0 33 0V32.4h36.9l-.5 63.1a16.5 16.5 0 0 0 33 0V32.4h34.6v34.8a16.5 16.5 0 1 0 33 0V32.4h38.4v63.1a16.5 16.5 0 0 0 33 0V32.4h40.8v134.5h-309zm0 0"/></g></symbol><symbol viewBox="0 0 9.04 14" id="i8" xmlns="http://www.w3.org/2000/svg"><path fill-rule="evenodd" d="M8.935 2.738L8.035.55A.899.899 0 0 0 7.2 0H1.8a.9.9 0 0 0-.836.55l-.9 2.188a.849.849 0 0 0 0 .649l.9 2.188a.9.9 0 0 0 .836.55h.45c0 .483.403.875.9.875h.45v.336c0 1.041.585 1.991 1.491 2.421.468.222.759.675.759 1.18 0 .699-.631 1.313-1.351 1.313-.744 0-1.349-.589-1.349-1.313a.888.888 0 0 0-.9-.875.888.888 0 0 0-.901.875c0 1.689 1.414 3.063 3.15 3.063 1.708 0 3.151-1.403 3.151-3.063 0-1.179-.678-2.234-1.769-2.752-.292-.139-.481-.472-.481-.849V7h.45c.497 0 .9-.392.9-.875h.45a.899.899 0 0 0 .835-.55l.9-2.188a.849.849 0 0 0 0-.649zM2.4 4.812h-.949l1.2-3.5H3.6l-1.2 3.5zm1.974 0h-.949l1.2-3.5h.949l-1.2 3.5zm1.974 0H5.4l1.2-3.5h.949l-1.201 3.5z"/></symbol><symbol viewBox="0 0 414.6 403.3" id="i9" xmlns="http://www.w3.org/2000/svg"><defs><clipPath id="ata" transform="translate(0 -6.6)"><path fill="none" d="M197 0h256.8v410.88H197z"/></clipPath></defs><g clip-path="url(#ata)"><path d="M261 172.9a25.6 25.6 0 0 0 25.6 25.6h12.8v9.9c0 30.4 16.7 58.2 42.4 70.8a38.2 38.2 0 0 1 21.6 34.5c0 20.5-17.9 38.4-38.4 38.4a38.4 38.4 0 0 1-38.4-38.4 25.6 25.6 0 1 0-51.2 0 89.7 89.7 0 0 0 89.6 89.6c48.6 0 89.6-41 89.6-89.6a89 89 0 0 0-50.3-80.5c-8.3-4.1-13.7-13.8-13.7-24.8v-9.8h12.8a25.6 25.6 0 0 0 25.6-25.7zm116.6-38.4"/></g><path d="M374 40v94.4H40V40h334m20.8-40H19.2A19.2 19.2 0 0 0 0 19.2v136a19.2 19.2 0 0 0 19.2 19.2h375.6a19.2 19.2 0 0 0 19.2-19.2v-136A19.2 19.2 0 0 0 394.8 0z" fill="#0450a2"/></symbol><symbol viewBox="0 0 15 15.01" id="instagram" xmlns="http://www.w3.org/2000/svg"><path fill-rule="evenodd" d="M14.435.565a1.856 1.856 0 0 0-1.358-.566H1.923c-.527 0-.98.189-1.358.566-.377.378-.566.83-.566 1.358v11.154c0 .527.189.98.566 1.357.378.378.831.567 1.358.567h11.154c.527 0 .98-.189 1.358-.567.377-.377.566-.83.566-1.357V1.923c0-.528-.189-.98-.566-1.358zm-9.049 4.84A2.945 2.945 0 0 1 7.51 4.55c.833 0 1.545.285 2.134.855.589.569.884 1.258.884 2.065 0 .808-.295 1.496-.884 2.066-.589.57-1.301.855-2.134.855a2.945 2.945 0 0 1-2.124-.855c-.59-.57-.884-1.258-.884-2.066 0-.807.294-1.496.884-2.065zm7.916 7.271a.57.57 0 0 1-.176.425.582.582 0 0 1-.42.171H2.265a.578.578 0 0 1-.425-.171.578.578 0 0 1-.171-.425V6.347h1.377c-.13.41-.195.837-.195 1.28 0 1.25.456 2.316 1.367 3.199.912.882 2.009 1.323 3.292 1.323a4.69 4.69 0 0 0 2.344-.606 4.556 4.556 0 0 0 1.699-1.645 4.33 4.33 0 0 0 .626-2.271c0-.443-.066-.87-.196-1.28h1.319v6.329zm0-8.722a.649.649 0 0 1-.196.479.65.65 0 0 1-.478.195h-1.7a.651.651 0 0 1-.478-.195.653.653 0 0 1-.196-.479V2.343a.66.66 0 0 1 .196-.474c.13-.133.29-.2.478-.2h1.7c.189 0 .348.067.478.2a.655.655 0 0 1 .196.474v1.611z"/></symbol><symbol viewBox="0 0 19 19" id="lens" xmlns="http://www.w3.org/2000/svg"><title>Vector Smart Object1</title><path d="M18.4 17.6L13.8 13a7.6 7.6 0 1 0-.8.8l4.6 4.6.4.2.4-.2a.6.6 0 0 0 0-.8zM8 14.5A6.4 6.4 0 1 1 14.5 8 6.4 6.4 0 0 1 8 14.5z"/></symbol><symbol viewBox="0 0 13 13" id="list" xmlns="http://www.w3.org/2000/svg"><path fill-rule="evenodd" d="M5 13v-3h8v3H5zm0-8h8v3H5V5zm0-5h8v3H5V0zM0 10h3v3H0v-3zm0-5h3v3H0V5zm0-5h3v3H0V0z"/></symbol><symbol viewBox="0 0 67 53" id="mail" xmlns="http://www.w3.org/2000/svg"><title>&#x412;&#x435;&#x43A;&#x442;&#x43E;&#x440;&#x43D;&#x44B;&#x439; &#x441;&#x43C;&#x430;&#x440;&#x442;-&#x43E;&#x431;&#x44A;&#x435;&#x43A;&#x442;5</title><rect x="1" y="1" width="65" height="51" rx="4.4" ry="4.4" fill="none"/><path fill="none" d="M1.7 3L34 35.3 65 3.2M27.2 29.4L3 49.9M40.5 29.4l24.2 20.5"/></symbol><symbol viewBox="0 0 8.16 14.07" id="ok" xmlns="http://www.w3.org/2000/svg"><path fill-rule="evenodd" d="M7.791 8.478a4.048 4.048 0 0 1-1.46.991c-.521.212-1.092.319-1.657.39.085.098.125.145.178.202.768.809 1.538 1.616 2.303 2.429.261.277.315.62.172.942-.157.351-.509.583-.853.558-.218-.016-.388-.13-.539-.289-.579-.613-1.169-1.213-1.736-1.837-.166-.182-.245-.147-.391.01-.582.63-1.174 1.25-1.77 1.867-.267.277-.585.327-.895.169a.958.958 0 0 1-.524-.877c.012-.24.124-.424.281-.588.759-.797 1.517-1.595 2.274-2.393.05-.053.097-.109.17-.192C2.311 9.747 1.38 9.48.582 8.825c-.099-.082-.201-.16-.291-.251-.349-.353-.384-.756-.108-1.172.236-.355.633-.45 1.045-.246.08.04.156.089.229.142 1.486 1.073 3.527 1.102 5.019.048a1.35 1.35 0 0 1 .489-.266c.356-.096.688.042.879.369.219.374.216.738-.053 1.029zM3.973 7.086C2.131 7.079.619 5.474.63 3.535.641 1.575 2.153-.005 4.014 0c1.865.006 3.361 1.608 3.352 3.589-.009 1.935-1.531 3.504-3.393 3.497zm.028-5.276c-.923-.001-1.659.779-1.652 1.751.007.959.743 1.72 1.66 1.716.914-.003 1.642-.775 1.639-1.737-.003-.963-.733-1.729-1.647-1.73z"/></symbol><symbol viewBox="0 0 8 11" id="pin" xmlns="http://www.w3.org/2000/svg"><path fill-rule="evenodd" d="M3.999-.002c-2.213 0-4 1.776-4 3.976 0 .767.247 1.499.59 2.101l2.607 4.484c.163.293.493.439.803.439a.933.933 0 0 0 .804-.439L7.41 6.077c.346-.601.59-1.32.59-2.1 0-2.2-1.788-3.979-4.001-3.979zm0 5.151a1.46 1.46 0 0 1-1.46-1.452 1.46 1.46 0 0 1 1.46-1.451A1.46 1.46 0 0 1 5.46 3.697c0 .801-.657 1.452-1.461 1.452z"/></symbol><symbol viewBox="0 0 12 13" id="pin2" xmlns="http://www.w3.org/2000/svg"><path fill-rule="evenodd" d="M12 11.323C12 12.475 8.889 13 6 13c-2.892 0-6-.525-6-1.677 0-1.17 3.062-1.523 4.407-1.621C3.273 7.885 1.84 5.33 1.84 4.016 1.84 1.801 3.704 0 5.997 0s4.158 1.801 4.158 4.016c0 1.314-1.434 3.869-2.568 5.686 1.346.098 4.41.451 4.413 1.621zM9.583 4.016c0-1.91-1.609-3.464-3.586-3.464-1.974 0-3.583 1.554-3.583 3.464 0 1.669 2.748 5.856 3.583 7.087.835-1.231 3.586-5.418 3.586-7.087zM7.252 10.23c-.546.852-.958 1.459-1.016 1.525-.184.21-.401.096-.475 0-.055-.071-.47-.673-1.016-1.525-2.911.162-4.174.796-4.174 1.09 0 .382 1.914 1.125 5.426 1.125 3.512 0 5.426-.74 5.429-1.125 0-.297-1.263-.928-4.174-1.09zM4.188 4.016c0-.965.81-1.748 1.809-1.748 1 0 1.81.783 1.81 1.748 0 .966-.81 1.749-1.81 1.749-.999 0-1.809-.783-1.809-1.749zm3.048 0c0-.66-.555-1.196-1.239-1.196s-1.238.536-1.238 1.196c0 .661.554 1.197 1.238 1.197.684 0 1.239-.536 1.239-1.197z"/></symbol><symbol viewBox="0 0 13 13" id="tiles" xmlns="http://www.w3.org/2000/svg"><path fill-rule="evenodd" d="M10 13v-3h3v3h-3zm0-8h3v3h-3V5zm0-5h3v3h-3V0zM5 10h3v3H5v-3zm0-5h3v3H5V5zm0-5h3v3H5V0zM0 10h3v3H0v-3zm0-5h3v3H0V5zm0-5h3v3H0V0z"/></symbol><symbol viewBox="0 0 9 13" id="twitter" xmlns="http://www.w3.org/2000/svg"><path fill-rule="evenodd" d="M7.49 9.749H4.507c-.415 0-.767-.156-1.057-.47a1.61 1.61 0 0 1-.435-1.14V6.997h4.251c.383 0 .713-.148.988-.443.274-.296.411-.651.411-1.064 0-.414-.137-.768-.412-1.064a1.315 1.315 0 0 0-.992-.442H3.015V1.625A1.63 1.63 0 0 0 2.573.478a1.389 1.389 0 0 0-1.058-.479c-.422 0-.782.158-1.075.47C.146.782 0 1.167 0 1.627v6.512c0 1.34.44 2.484 1.321 3.434.882.952 1.945 1.426 3.188 1.426h2.982c.414 0 .769-.16 1.065-.478.296-.318.444-.701.444-1.147 0-.446-.148-.828-.444-1.147a1.406 1.406 0 0 0-1.066-.478z"/></symbol><symbol viewBox="0 0 13 10.01" id="twitter2" xmlns="http://www.w3.org/2000/svg"><path fill-rule="evenodd" d="M12.641.184a5.56 5.56 0 0 1-1.694.613A2.73 2.73 0 0 0 9-.001c-1.473 0-2.667 1.131-2.667 2.525 0 .197.024.391.069.575C4.186 2.994 2.221 1.989.905.461c-.229.372-.36.806-.36 1.269 0 .876.471 1.65 1.186 2.102a2.788 2.788 0 0 1-1.208-.317v.031c0 1.224.919 2.244 2.139 2.477a2.838 2.838 0 0 1-1.205.042c.34 1.003 1.324 1.733 2.491 1.754A5.545 5.545 0 0 1 .636 8.9C.421 8.9.208 8.888 0 8.865a7.86 7.86 0 0 0 4.088 1.134c4.905 0 7.588-3.847 7.588-7.184l-.009-.327c.523-.355.976-.8 1.333-1.305a5.6 5.6 0 0 1-1.531.397A2.57 2.57 0 0 0 12.641.184z"/></symbol><symbol viewBox="0 0 58.9 33.6" id="vk" xmlns="http://www.w3.org/2000/svg"><title>vk</title><path d="M28.8 33.5h3.5a3 3 0 0 0 1.6-.7 2.6 2.6 0 0 0 .5-1.5s-.1-4.7 2.1-5.4 4.9 4.6 7.9 6.6a5.6 5.6 0 0 0 3.9 1.2h7.9s4.1-.3 2.2-3.5c-.2-.3-1.1-2.4-5.9-6.8s-4.3-3.8 1.7-11.8c3.6-4.8 5.1-7.8 4.6-9s-3.1-.9-3.1-.9h-8.8a2 2 0 0 0-1.1.2 2.5 2.5 0 0 0-.8 1 51.1 51.1 0 0 1-3.3 6.9c-3.9 6.7-5.5 7.1-6.2 6.6s-1.1-3.9-1.1-6c0-6.5 1-9.2-1.9-9.9a15 15 0 0 0-4.2-.5c-3.2 0-5.8 0-7.4.8s-1.8 1.6-1.3 1.7a4 4 0 0 1 2.6 1.3c.9 1.2.9 4 .9 4s.5 7.6-1.2 8.6-2.8-.7-6.4-6.8A56.6 56.6 0 0 1 12.4 3a2.6 2.6 0 0 0-.7-1 3.7 3.7 0 0 0-1.4-.5H1.9s-1.2.1-1.7.6 0 1.5 0 1.5 6.5 15.4 14 23.2 14.6 6.7 14.6 6.7zm0 0" fill-rule="evenodd"/></symbol><symbol viewBox="0 0 15.01 15.02" id="youtube" xmlns="http://www.w3.org/2000/svg"><path fill-rule="evenodd" d="M14.176 14.175a2.707 2.707 0 0 1-1.988.826H2.812a2.707 2.707 0 0 1-1.988-.826 2.708 2.708 0 0 1-.825-1.987V2.812c0-.775.275-1.438.825-1.988a2.71 2.71 0 0 1 1.988-.825h9.376a2.71 2.71 0 0 1 1.988.825c.55.55.825 1.213.825 1.988v9.376c0 .775-.275 1.437-.825 1.987zM5.644.926l-.498 1.905L4.628.926h-.761l.234.674.225.674c.228.671.377 1.185.449 1.543v1.964h.723V3.817L6.377.926h-.733zM8.32 3.339c0-.378-.068-.661-.205-.85a.908.908 0 0 0-.762-.371c-.332 0-.586.124-.761.371-.137.189-.205.472-.205.85v1.27c0 .377.068.661.205.849.175.248.429.372.761.372.32 0 .574-.124.762-.372.137-.175.205-.459.205-.849v-1.27zm2.423-1.172h-.655v2.764c-.143.202-.28.303-.41.303-.097 0-.15-.052-.156-.157a1.4 1.4 0 0 1-.01-.254V2.167h-.654v2.861c0 .242.019.421.058.538.072.176.212.263.42.263.234 0 .485-.146.752-.439v.391h.655V2.167zm1.943 5.469a1.337 1.337 0 0 0-.42-.718 1.322 1.322 0 0 0-.742-.337c-.885-.097-2.227-.146-4.024-.146-1.79 0-3.129.049-4.014.146a1.352 1.352 0 0 0-1.162 1.055c-.13.567-.196 1.413-.196 2.54 0 1.146.066 1.992.196 2.539.065.28.203.518.415.713.212.196.457.31.737.342.892.098 2.234.147 4.024.147 1.791 0 3.132-.049 4.024-.147a1.27 1.27 0 0 0 .737-.342 1.37 1.37 0 0 0 .416-.713c.13-.547.195-1.393.195-2.539 0-1.153-.062-1.999-.186-2.54zm-.781 4.523c-.176.26-.436.39-.781.39-.339 0-.603-.123-.792-.371-.136-.176-.205-.456-.205-.84v-1.26c0-.384.065-.664.196-.84.189-.247.449-.371.781-.371s.586.124.762.371c.136.183.205.462.205.84v.742h-1.299v.635c0 .332.111.498.332.498.156 0 .254-.084.293-.254l.005-.068c.003-.039.005-.093.005-.161v-.21h.664v.088c0 .189-.006.329-.019.42a.934.934 0 0 1-.147.391zm-1.133-1.876h.645v-.332c0-.332-.108-.498-.323-.498-.214 0-.322.166-.322.498v.332zm-1.738 2.266c-.228 0-.45-.133-.665-.4v.351h-.654V7.685h.654v1.573c.209-.261.43-.391.665-.391.266 0 .439.137.517.41.045.137.068.378.068.723v1.426c0 .339-.022.576-.068.713-.078.273-.251.41-.517.41zm-.059-2.608c0-.325-.094-.488-.283-.488-.111 0-.218.052-.323.156v2.188c.105.104.212.157.323.157.189-.001.283-.16.283-.479V9.941zm-2.471 2.168c-.254.293-.502.44-.742.44-.215 0-.352-.091-.411-.273-.039-.105-.058-.28-.058-.528V8.916h.644v2.637c0 .156.004.241.01.254.007.097.055.146.147.146.13 0 .267-.101.41-.302V8.916h.654V12.5h-.654v-.391zm-2.09.391h-.723V8.369h-.762v-.684h2.266v.684h-.781V12.5zm2.939-7.266c-.208 0-.312-.166-.312-.498V3.212c0-.339.104-.508.312-.508.209 0 .313.169.313.508v1.524c0 .332-.104.498-.313.498z"/></symbol></svg>