<?xml version="1.0" encoding="utf-8"?>
<!-- Generator: Adobe Illustrator 19.0.1, SVG Export Plug-In . SVG Version: 6.00 Build 0)  -->
<svg version="1.1" id="Layer_1" xmlns="http://www.w3.org/2000/svg" xmlns:xlink="http://www.w3.org/1999/xlink" x="0px" y="0px"
	 viewBox="-377 228.7 204.7 105.3" style="enable-background:new -377 228.7 204.7 105.3;" xml:space="preserve">
<g>
	<g>
		<polygon points="-259.7,303.9 -259.7,321 -243.7,321 -243.7,317.9 -235.7,317.9 -235.7,321 -232.7,321 -232.7,303.9 		"/>
		<rect x="-289.6" y="303.9" width="28.9" height="17.1"/>
		<g>
			<g>
				<path d="M-314.9,305.4c-1.2-0.8-2.5-1.4-4-1.7c-0.8-0.2-1.7-0.3-2.6-0.3c-2.4,0-4.7,0.7-6.5,2c-3.1,2.1-5.1,5.6-5.1,9.7
					c0,6.4,5.2,11.7,11.6,11.7c4.5,0,8.4-2.5,10.3-6.3c0.8-1.6,1.3-3.4,1.3-5.4C-309.8,311-311.8,307.5-314.9,305.4z M-321.4,321.6
					c-3.6,0-6.5-2.9-6.5-6.5s2.9-6.5,6.5-6.5s6.5,2.9,6.5,6.5S-317.8,321.6-321.4,321.6z"/>
			</g>
		</g>
		<path d="M-213.7,303.4c-6.4,0-11.6,5.2-11.6,11.7c0,2,0.5,3.9,1.4,5.5c2,3.6,5.8,6.1,10.2,6.1c5.5,0,10.2-3.9,11.3-9.2
			c0.2-0.8,0.3-1.7,0.3-2.5C-202.1,308.6-207.3,303.4-213.7,303.4z M-213.7,321.6c-1.6,0-3.1-0.6-4.2-1.6c-1.4-1.2-2.3-3-2.3-5
			c0-3.6,2.9-6.5,6.5-6.5s6.5,2.9,6.5,6.5c0,1.2-0.3,2.3-0.8,3.2C-209.1,320.3-211.2,321.6-213.7,321.6z"/>
		<path d="M-210.2,315c0-1.9-1.6-3.5-3.5-3.5s-3.5,1.6-3.5,3.5s1.6,3.5,3.5,3.5S-210.2,316.9-210.2,315z M-213.7,317.2
			c-1.2,0-2.2-1-2.2-2.2s1-2.2,2.2-2.2s2.2,1,2.2,2.2S-212.4,317.2-213.7,317.2z"/>
		<path d="M-317.9,315c0-1.9-1.6-3.5-3.5-3.5s-3.5,1.6-3.5,3.5s1.6,3.5,3.5,3.5C-319.4,318.5-317.9,316.9-317.9,315z M-321.4,317.2
			c-1.2,0-2.2-1-2.2-2.2s1-2.2,2.2-2.2c1.2,0,2.2,1,2.2,2.2S-320.2,317.2-321.4,317.2z"/>
		<g>
			<g>
				<path d="M-181.4,299.2V278c0-1.3-0.3-2.6-0.7-3.8l-8-20.6c1.2-0.6,1.3-2.4,0-3c-6.7-3.4-25.8-4-32.5-4.1c-1.3,0-2.4,1-2.4,2.3
					v39.6l4.2,6c0.2,0.3,0.2,0.8,0,1l-2,2.2h-7.1h-120.5c0,0-0.3,2.2,0.4,2.7l9.2,5.4h9.7c0.1,0,0.2-0.4,0.3-0.5
					c0.2-0.2,0.3-0.4,0.5-0.6c0.3-0.2,0.5-0.5,0.8-0.7c0.1-0.1,0.2-0.2,0.3-0.3c0.4-0.2,0.7-0.5,1.1-0.7c0.1,0,0.1-0.1,0.2-0.1
					c0.3-0.2,0.6-0.3,0.9-0.5c0.1,0,0.2-0.1,0.2-0.1c0.8-0.3,1.6-0.6,2.4-0.7c0.1,0,0.2,0,0.3-0.1c0.3-0.1,0.6-0.1,0.9-0.1
					c0.1,0,0.3,0,0.4,0c0.4,0,0.8-0.1,1.3-0.1c2.8,0,5.4,0.8,7.7,2.4c3.7,2.5,5.7,6,5.9,11.5c0,0,2.7,5.7,8.8,5.7h8.7v-18.5h58.4
					v18.6h5.9c-0.8-2.5-1.2-3.8-1.2-5.8c0-7.7,6.5-14,14.3-13.7c0.5,0,1,0.1,1.5,0.1l-3.4-5.1v-45.3h3.3l14.5,1.1
					c1.4,0.2,2.6,1.1,3,2.5l4.6,15.6v36.9c0,2.4-2,4.3-4.3,4.3h-6.6c0.3,1.2,0.5,2.3,0.5,3.5c0,0.9-0.1,1.6-0.2,2.5h15.3
					c2.2,0,3.9-1.8,4.1-3.9l1-13.1C-180,300.6-181.4,299.2-181.4,299.2z"/>
			</g>
		</g>
		<g>
			<path d="M-206.6,270.8c-1.1,0-2.1-0.7-2.8-1.6l-0.8-0.8c-0.8-1-1.5-2.3-1.5-3.6v-13.2l0,0h-2v44.5l3.6,5.7
				c4.3,1.2,7.7,4.4,9.2,8.7h7.2c1.7,0,3.2-1.4,3.2-3.2v-36.5H-206.6z M-204.6,286h-1v-2h-7.1v-1h8.1l0,1.1V286z"/>
		</g>
	</g>
	<g>
		<path d="M-225.1,244.8c-0.1,0.1-0.2,0.1-0.3,0.2C-225.3,244.9-225.2,244.9-225.1,244.8z"/>
		<path d="M-205.9,243.3c0-0.3-0.1-0.6-0.3-0.8C-206,242.7-205.9,243-205.9,243.3c0,0.4-0.2,0.8-0.6,1.1
			C-206.1,244.1-205.9,243.7-205.9,243.3z"/>
		<g>
			<path d="M-242,236.4l-14.4,14.7l-0.1,0.1l0.1-0.1L-242,236.4z"/>
			<path d="M-248.9,293.1c0,0.1-0.1,0.1-0.1,0.2C-249,293.2-249,293.2-248.9,293.1l23.3-47.8c0-0.1,0.1-0.1,0.1-0.2
				c0,0.1-0.1,0.1-0.1,0.2L-248.9,293.1z"/>
			<path d="M-345.7,252.3c0-0.1,0.1-0.2,0.1-0.2C-345.7,252.1-345.7,252.2-345.7,252.3l-12,25.7c0,0,0,0.1-0.1,0.1
				c0,0,0-0.1,0.1-0.1L-345.7,252.3z"/>
			<path d="M-206.2,242.4c-0.2-0.2-0.5-0.4-0.8-0.5l-33.9-5.9c-0.1,0-0.1,0-0.2,0c0,0,0,0-0.1,0s-0.2,0-0.2,0l0,0
				c-0.1,0-0.1,0-0.2,0.1l0,0c-0.1,0-0.1,0.1-0.2,0.1l0,0c-0.1,0-0.1,0.1-0.2,0.2l-14.4,14.7l-0.1,0.1c-0.1,0.1-0.2,0.1-0.3,0.2
				c-0.1,0-0.2,0.1-0.3,0.1c-0.1,0-0.2,0-0.3,0h-87.1c-0.2,0-0.4,0-0.5,0.1c-0.1,0.1-0.2,0.1-0.3,0.2c-0.1,0.1-0.1,0.1-0.2,0.2
				s-0.1,0.2-0.1,0.2l-12.1,25.8c0,0,0,0.1-0.1,0.1c0,0.1-0.1,0.2-0.1,0.3s0,0.2,0,0.3c0,0.1,0,0.2,0,0.3c0,0.1,0.1,0.2,0.1,0.2
				s0,0.1,0.1,0.1c0,0.1,0.1,0.1,0.2,0.2c0.1,0.1,0.1,0.1,0.2,0.2c0.1,0.1,0.2,0.1,0.2,0.1l36.1,14c0.2,0.1,0.3,0.1,0.5,0.1h70.2
				c0.1,0,0.1,0,0.2,0s0.1,0,0.2-0.1c0.1,0,0.2-0.1,0.3-0.1c0.1-0.1,0.2-0.1,0.3-0.2l0.1-0.1c0-0.1,0.1-0.1,0.1-0.2l23.3-47.8
				c0-0.1,0.1-0.1,0.1-0.2s0.1-0.1,0.1-0.1c0.1-0.1,0.2-0.2,0.3-0.2c0.2-0.1,0.4-0.2,0.7-0.2h17.2c0.3,0,0.5-0.1,0.8-0.2
				c0.3-0.2,0.6-0.6,0.6-1.1C-205.9,243-206,242.7-206.2,242.4z M-344.2,276.7c-2.1-0.8-3.1-3.2-2.1-5.3l4.7-10.1
				c0.6-1.4,2-2.3,3.5-2.3h3.9l-8.6,18.2L-344.2,276.7z M-337.1,279.4l9.5-20.4h6.6l-10.7,22.5L-337.1,279.4z M-320.6,285.8
				l-5.4-2.1l11.5-24.6h6.5L-320.6,285.8z M-314.1,286.3l12.8-27.3h6.5l-12.9,27.3H-314.1z M-301,286.3l12.8-27.3h6.5l-12.9,27.3
				H-301z M-287.9,286.3l12.8-27.3h6.5l-12.9,27.3H-287.9z M-274.8,286.3l12.8-27.2h6.5l-12.9,27.3h-6.4V286.3z M-254.7,286.3h-6.4
				l12.8-27.3h6.5L-254.7,286.3z"/>
			<path d="M-249.4,293.7c-0.1,0.1-0.2,0.1-0.3,0.1C-249.6,293.8-249.5,293.7-249.4,293.7z"/>
			<path d="M-357.8,278.4c0-0.1,0-0.2,0.1-0.3C-357.8,278.2-357.8,278.3-357.8,278.4z"/>
			<path d="M-241.1,236L-241.1,236C-241.1,236-241,236-241.1,236C-241,236-241,236-241.1,236z"/>
			<path d="M-250.1,293.9c0.1,0,0.1,0,0.2,0C-250,293.9-250,293.9-250.1,293.9L-250.1,293.9z"/>
			<path d="M-256.7,251.4c0.1,0,0.2-0.1,0.3-0.2C-256.5,251.3-256.6,251.3-256.7,251.4z"/>
		</g>
		<path d="M-224.4,244.6c-0.3,0-0.5,0.1-0.7,0.2C-224.9,244.7-224.7,244.6-224.4,244.6h17.2c0.3,0,0.5-0.1,0.8-0.2
			c-0.2,0.2-0.5,0.2-0.8,0.2H-224.4z"/>
	</g>
</g>
</svg>
