<?xml version="1.0" encoding="utf-8"?>
<!-- Generator: Adobe Illustrator 19.0.1, SVG Export Plug-In . SVG Version: 6.00 Build 0)  -->
<svg version="1.1" id="Layer_1" xmlns="http://www.w3.org/2000/svg" xmlns:xlink="http://www.w3.org/1999/xlink" x="0px" y="0px"
	 viewBox="0 0 204.7 105.3" style="enable-background:new 0 0 204.7 105.3;" xml:space="preserve">
<polygon points="109.9,69.4 109.9,86.7 126.2,86.7 126.2,84.7 134.3,84.7 134.3,86.7 137.4,86.7 137.4,69.4 "/>
<rect x="92.6" y="69.4" width="16.3" height="17.3"/>
<g>
	<g>
		<path d="M45.3,71.5c-1.2-0.8-2.5-1.4-4.1-1.7c-0.8-0.2-1.7-0.3-2.5-0.3c-2.4,0-4.7,0.7-6.6,2c-3.1,2.1-5.1,5.7-5.1,9.7
			c0,6.5,5.2,11.7,11.7,11.7c4.5,0,8.4-2.5,10.4-6.3c0.8-1.6,1.3-3.5,1.3-5.4C50.4,77.1,48.4,73.5,45.3,71.5z M38.8,87.6
			c-3.7,0-6.6-2.9-6.6-6.6c0-3.7,2.9-6.6,6.6-6.6s6.6,2.9,6.6,6.6C45.4,84.7,42.4,87.6,38.8,87.6z"/>
	</g>
</g>
<path d="M156.7,69.4c-6.5,0-11.7,5.2-11.7,11.7c0,2,0.5,4,1.4,5.6c2,3.7,5.8,6.1,10.3,6.1c5.6,0,10.3-4,11.4-9.2
	c0.2-0.8,0.3-1.6,0.3-2.5C168.4,74.6,163.2,69.4,156.7,69.4z M156.8,87.6c-1.6,0-3.2-0.6-4.3-1.5c-1.4-1.2-2.3-3.1-2.3-5
	c0-3.7,2.9-6.6,6.6-6.6s6.6,2.9,6.6,6.6c0,1.2-0.3,2.2-0.8,3.3C161.3,86.3,159.2,87.6,156.8,87.6z"/>
<path d="M160.2,81.1c0-1.9-1.6-3.6-3.6-3.6c-1.9,0-3.6,1.6-3.6,3.6s1.6,3.6,3.6,3.6C158.6,84.7,160.2,83.1,160.2,81.1z M156.8,83.3
	c-1.2,0-2.2-1-2.2-2.2c0-1.2,1-2.2,2.2-2.2s2.2,1,2.2,2.2C159,82.3,158,83.3,156.8,83.3z"/>
<path d="M73.5,81.1c0-1.9-1.6-3.6-3.6-3.6s-3.6,1.6-3.6,3.6s1.6,3.6,3.6,3.6S73.5,83.1,73.5,81.1z M70,83.3c-1.2,0-2.2-1-2.2-2.2
	c0-1.2,1-2.2,2.2-2.2c1.2,0,2.2,1,2.2,2.2C72.3,82.3,71.3,83.3,70,83.3z"/>
<path d="M42.3,81.1c0-1.9-1.6-3.6-3.6-3.6c-1.9,0-3.6,1.6-3.6,3.6s1.6,3.6,3.6,3.6C40.7,84.7,42.3,83.1,42.3,81.1z M38.8,83.3
	c-1.2,0-2.2-1-2.2-2.2c0-1.2,1-2.2,2.2-2.2c1.2,0,2.2,1,2.2,2.2C41.1,82.3,40,83.3,38.8,83.3z"/>
<path d="M70,69.4c-6.5,0-11.7,5.2-11.7,11.7c0,2,0.5,4,1.4,5.6c2,3.7,5.8,6.1,10.3,6.1c4.5,0,8.2-2.4,10.3-6.1
	c0.5-0.9,0.9-1.9,1.1-3.1c0.2-0.8,0.3-1.6,0.3-2.5C81.7,74.6,76.4,69.4,70,69.4z M70,87.6c-1.2,0-2.4-0.4-3.5-1
	c-0.3-0.2-0.5-0.4-0.8-0.6c-1.4-1.2-2.3-3.1-2.3-5c0-3.7,2.9-6.6,6.6-6.6c3.7,0,6.6,2.9,6.6,6.6c0,1.2-0.3,2.2-0.8,3.3
	c-0.5,0.9-1.3,1.7-2.2,2.3C72.5,87.3,71.4,87.6,70,87.6z"/>
<path d="M143.6,62.5V50.1c-4.1,0-6.2,2.7-6.2,6.2S139.5,62.5,143.6,62.5z"/>
<g>
	<path d="M163.8,36.9c-1.1,0-2.1-0.7-2.8-1.6l-0.8-0.8c-0.8-1-1.5-2.3-1.5-3.6V17.7l0,0h-2v44.6l3.7,5.8c4.3,1.2,7.7,4.5,9.3,8.6
		h7.3c1.7,0,3.2-1.4,3.2-3.2V36.9H163.8z M165.8,52.2h-1v-2h-7.1v-1h8.1V52.2z"/>
</g>
<g>
	<path d="M190.6,66.5l-1.4-1.1V44.2c0-1.3-0.2-2.6-0.7-3.9l-8-20.6c1.2-0.6,1.2-2.4,0-3.1c-6.7-3.5-26-4.1-32.7-4.2
		c-1.2,0-2.3,1-2.3,2.2v39.7l4.2,6c0.2,0.2,0.1,0.6-0.1,0.8l-2,2H74.4v-9.9v-4.9c0-1.2-1-2.2-2.2-2.2h-41c-1.2,0-2.2,1-2.2,2.2v2.7
		c0,1.2,1,2.2,2.2,2.2h12.8c1.2,0,2.2,1,2.2,2.2v7.7l-35,0c-0.3,0-0.5,0.2-0.5,0.4c-0.1,0.7-0.1,1.9,0.4,2.3l9.3,5.4h8.5
		c0.1,0,1-1.1,2-1.7c0.4-0.2,0.7-0.5,1.1-0.7c0.1,0,0.8-0.4,1.1-0.5c0.1,0,1.8-0.7,2.6-0.8c0.1,0,0.9-0.2,1.2-0.2
		c0.1,0,1.2-0.1,1.6-0.1c2.7,0,5.5,0.8,7.7,2.3c3.8,2.5,6,6.8,6,11.4c0,2-0.4,3.6-1.2,5.6h6.2c-1.2-3.1-1.5-5.2-0.9-9
		c0.6-3.2,2.5-6.1,5.2-7.9c10.6-6.6,21.9,1.1,21.9,11.3c0,1-0.1,2-0.3,2.9c-0.2,0.9-0.5,1.6-0.9,2.6h9.3V68.3h46.8v18.3h5.8
		c-1-2.6-1.4-4.4-1.1-7.5c0.4-4.2,3-7.9,6.8-9.8c4.8-2.4,6.9-2.1,9.1-1.8l-3.3-5.2V16.6h3.1l14.6,1.6c1.4,0.2,2.6,1.1,3.1,2.5
		l4.7,15.7v38.3c0,1.6-1.3,2.9-2.9,2.9h-8.3c0.3,1,0.5,2.3,0.5,3.6c0,0.9-0.1,1.5-0.2,2.5h15.5c2.1,0,4-1.6,4.2-3.9l1-13
		C190.7,66.7,190.6,66.6,190.6,66.5z M68,58.3h-16c-0.2,0-0.5-0.1-0.6-0.3c-1.7-1.8-0.4-3.8,1.2-3.8h16c0.2,0,0.5,0.1,0.6,0.3
		C70.9,56.2,69.7,58.3,68,58.3z"/>
</g>
</svg>
