<?xml version="1.0" encoding="utf-8"?>
<!-- Generator: Adobe Illustrator 19.0.1, SVG Export Plug-In . SVG Version: 6.00 Build 0)  -->
<svg version="1.1" id="Layer_1" xmlns="http://www.w3.org/2000/svg" xmlns:xlink="http://www.w3.org/1999/xlink" x="0px" y="0px"
	 viewBox="-377 228.7 204.7 105.3" style="enable-background:new -377 228.7 204.7 105.3;" xml:space="preserve">
<g>
	<polygon points="-261,305.4 -261,322.4 -245,322.4 -245,320.4 -237,320.4 -237,322.4 -234,322.4 -234,305.4 	"/>
	<rect x="-278" y="305.4" width="16" height="17"/>
	<g>
		<g>
			<path d="M-324.5,307.4c-1.2-0.8-2.5-1.4-4-1.7c-0.8-0.2-1.7-0.3-2.5-0.3c-2.4,0-4.6,0.7-6.5,2c-3,2.1-5,5.6-5,9.5
				c0,6.4,5.1,11.5,11.5,11.5c4.4,0,8.3-2.5,10.2-6.2c0.8-1.6,1.3-3.4,1.3-5.3C-319.5,312.9-321.5,309.4-324.5,307.4z M-330.9,323.3
				c-3.6,0-6.5-2.9-6.5-6.5c0-3.6,2.9-6.5,6.5-6.5s6.5,2.9,6.5,6.5C-324.4,320.4-327.4,323.3-330.9,323.3z"/>
		</g>
	</g>
	<path d="M-215,305.4c-6.4,0-11.5,5.1-11.5,11.5c0,2,0.5,3.9,1.4,5.5c2,3.6,5.7,6,10.1,6c5.5,0,10.1-3.9,11.2-9
		c0.2-0.8,0.3-1.6,0.3-2.5C-203.5,310.5-208.6,305.4-215,305.4z M-214.9,323.3c-1.6,0-3.1-0.6-4.2-1.5c-1.4-1.2-2.3-3-2.3-4.9
		c0-3.6,2.9-6.5,6.5-6.5s6.5,2.9,6.5,6.5c0,1.2-0.3,2.2-0.8,3.2C-210.4,322-212.5,323.3-214.9,323.3z"/>
	<path d="M-211.5,316.9c0-1.9-1.6-3.5-3.5-3.5s-3.5,1.6-3.5,3.5s1.6,3.5,3.5,3.5S-211.5,318.8-211.5,316.9z M-214.9,319
		c-1.2,0-2.2-1-2.2-2.2c0-1.2,1-2.2,2.2-2.2s2.2,1,2.2,2.2C-212.7,318-213.7,319-214.9,319z"/>
	<path d="M-296.8,316.9c0-1.9-1.6-3.5-3.5-3.5c-1.9,0-3.5,1.6-3.5,3.5s1.6,3.5,3.5,3.5C-298.4,320.4-296.8,318.8-296.8,316.9z
		 M-300.2,319c-1.2,0-2.2-1-2.2-2.2c0-1.2,1-2.2,2.2-2.2c1.2,0,2.2,1,2.2,2.2C-298,318-299,319-300.2,319z"/>
	<path d="M-327.5,316.9c0-1.9-1.6-3.5-3.5-3.5s-3.5,1.6-3.5,3.5s1.6,3.5,3.5,3.5S-327.5,318.8-327.5,316.9z M-330.9,319
		c-1.2,0-2.2-1-2.2-2.2c0-1.2,1-2.2,2.2-2.2c1.2,0,2.2,1,2.2,2.2C-328.7,318-329.7,319-330.9,319z"/>
	<path d="M-300.2,305.4c-6.4,0-11.5,5.1-11.5,11.5c0,2,0.5,3.9,1.4,5.5c2,3.6,5.7,6,10.1,6c4.4,0,8.1-2.4,10.1-6
		c0.5-0.9,0.9-1.9,1.1-3c0.2-0.8,0.3-1.6,0.3-2.5C-288.7,310.5-293.9,305.4-300.2,305.4z M-300.2,323.3c-1.2,0-2.4-0.4-3.4-1
		c-0.3-0.2-0.5-0.4-0.8-0.6c-1.4-1.2-2.3-3-2.3-4.9c0-3.6,2.9-6.5,6.5-6.5c3.6,0,6.5,2.9,6.5,6.5c0,1.2-0.3,2.2-0.8,3.2
		c-0.5,0.9-1.3,1.7-2.2,2.3C-297.8,323-298.9,323.3-300.2,323.3z"/>
	<path d="M-240,298.6v-12.2c-4,0-6.1,2.7-6.1,6.1S-244,298.6-240,298.6z"/>
	<path d="M-181.6,302.5l-1.4-1.1v-20.8c0-1.3-0.2-2.6-0.7-3.8l-7.9-20.3c1.2-0.6,1.2-2.4,0-3c-6.6-3.4-25.6-4-32.2-4.1
		c-1.2,0-2.3,1-2.3,2.2v39l4.1,5.9c0.2,0.2,0.1,0.6-0.1,0.8l-2,2h-6l0.2-22.6c0-1.8-1.9-2.9-3.5-2l-3.5,2c-0.2,0.1-0.3,0.3-0.3,0.5
		v22.2h-61.2l-45.8-19l-0.5-2.5c-0.4-1.9-2.3-3-4.1-2.4l0,0c-1.9,0.5-3.2,2.2-3.2,4.1v19.7h-6.6c0,0-0.3,2.2,0.4,2.7l9.1,5.3h8.4
		c0.1,0,1-1.1,2-1.7c0.4-0.2,0.7-0.5,1.1-0.7c0.1,0,0.8-0.4,1.1-0.5c0.1,0,1.8-0.7,2.6-0.8c0.1,0,0.9-0.2,1.2-0.2
		c0.1,0,1.2-0.1,1.6-0.1c2.7,0,5.4,0.8,7.6,2.3c3.7,2.5,5.9,6.7,5.9,11.2c0,2-0.4,3.5-1.2,5.5h6.1c-0.8-2-1.2-3.6-1.2-5.5
		c0-7.4,6.1-13.5,13.5-13.5c7.4,0,13.5,6.1,13.5,13.5c0,1-0.1,2-0.3,2.9s-0.5,1.6-0.9,2.6h9.1v-18h46v18h5.7c-0.8-2-1.2-3.5-1.2-5.5
		c0-7.4,6.1-13.5,13.5-13.5c0.8,0,1.5,0.1,2.2,0.2l-3.2-5.1v-45h3l14.4,1.6c1.4,0.2,2.6,1.1,3,2.5l4.6,15.4v36.4
		c0,2.3-1.8,4.1-4.1,4.1h-6.9c0.3,1,0.5,2.3,0.5,3.5c0,0.9-0.1,1.5-0.2,2.5h15.2c2.1,0,3.9-1.6,4.1-3.8l1-12.8
		C-181.5,302.7-181.6,302.6-181.6,302.5z M-340.2,299.4l-2.3-10.9l23.4,10.9H-340.2z"/>
	<g>
		<polygon points="-328.5,239.3 -333.8,235.4 -365.5,235.4 -349.1,253 -355.2,273.3 -344.5,272 -329.8,278.2 -309.6,239.7 		"/>
		<path d="M-284.9,240.2l-22.3-0.5l-20.6,39.4l21.4,9.1l25.2-47.8C-282.4,240.3-283.7,240.2-284.9,240.2z"/>
		<path d="M-259.8,245.5c-3-1.4-6.1-2.5-9.4-3.2l-3.6-0.8c-2-0.4-4-0.8-6-1l-25.5,48.5l4.4,1.9c2.7,1.4,8.7,3.9,12.8,5.3
			c0.5,0.2,1.1,0.4,1.6,0.5l0,0l0,0c1,0.3,1.9,0.6,2.9,0.8l26.6-50.3C-257.2,246.6-258.5,246-259.8,245.5z"/>
		<path d="M-254.1,248.2l-26.2,49.7c2.1,0.3,4.3,0.5,6.6,0.5c18.6,0,33.7-12.4,33.7-27.7C-240,261.5-245.6,253.3-254.1,248.2z"/>
	</g>
	<g>
		<path d="M-208,273.4c-1.1,0-2.1-0.7-2.8-1.6l-0.8-0.8c-0.8-1-1.5-2.3-1.5-3.5v-13l0,0h-2v43.9l3.6,5.7c4.2,1.2,7.6,4.4,9.1,8.5
			h7.2c1.7,0,3.1-1.4,3.1-3.1v-36.1H-208z M-206,288.4h-1v-2h-7v-1h8V288.4z"/>
	</g>
</g>
</svg>
