<svg 
 xmlns="http://www.w3.org/2000/svg"
 xmlns:xlink="http://www.w3.org/1999/xlink">
<path fill-rule="evenodd"
 d="M6.837,2.751 C5.786,1.289 4.721,0.106 4.710,0.094 C4.656,0.034 4.580,-0.000 4.500,-0.000 C4.420,-0.000 4.344,0.034 4.290,0.094 C4.279,0.106 3.213,1.289 2.163,2.751 C0.728,4.748 -0.000,6.298 -0.000,7.358 C-0.000,9.918 2.019,12.000 4.500,12.000 C6.981,12.000 9.000,9.918 9.000,7.358 C9.000,6.298 8.272,4.748 6.837,2.751 ZM4.949,10.498 C4.713,10.555 4.470,10.585 4.227,10.585 C2.495,10.585 1.086,9.131 1.086,7.345 C1.086,7.099 1.160,6.652 1.510,5.925 C1.545,5.852 1.626,5.816 1.702,5.839 C1.778,5.862 1.826,5.939 1.817,6.020 C1.809,6.090 1.805,6.155 1.805,6.215 C1.805,8.130 3.125,9.793 4.944,10.170 C5.019,10.186 5.073,10.253 5.075,10.332 C5.076,10.411 5.024,10.480 4.949,10.498 Z"/>
</svg>