<svg 
 xmlns="http://www.w3.org/2000/svg"
 xmlns:xlink="http://www.w3.org/1999/xlink">
<path fill-rule="evenodd"
 d="M5.900,0.001 C2.585,0.056 -0.054,2.784 0.001,6.100 C0.056,9.415 2.784,12.054 6.100,11.999 C9.415,11.944 12.054,9.216 11.999,5.900 C11.944,2.585 9.216,-0.054 5.900,0.001 ZM2.719,6.055 C2.711,5.583 2.804,5.132 2.978,4.723 L4.724,5.693 C4.698,5.799 4.686,5.909 4.688,6.022 C4.690,6.135 4.706,6.245 4.735,6.349 L3.022,7.376 C2.835,6.973 2.727,6.526 2.719,6.055 ZM5.703,9.268 C4.760,9.183 3.928,8.696 3.384,7.979 L5.097,6.951 C5.256,7.102 5.452,7.213 5.669,7.270 L5.703,9.268 ZM5.627,4.742 C5.412,4.806 5.220,4.923 5.066,5.079 L3.320,4.109 C3.840,3.374 4.655,2.860 5.594,2.744 L5.627,4.742 ZM6.297,2.732 C7.240,2.817 8.072,3.304 8.616,4.021 L6.903,5.049 C6.744,4.898 6.548,4.787 6.330,4.730 L6.297,2.732 ZM6.406,9.256 L6.372,7.258 C6.588,7.194 6.780,7.077 6.934,6.921 L8.680,7.891 C8.160,8.626 7.345,9.140 6.406,9.256 ZM9.022,7.277 L7.276,6.307 C7.302,6.201 7.314,6.091 7.312,5.978 C7.310,5.865 7.294,5.755 7.265,5.651 L8.978,4.624 C9.165,5.027 9.273,5.474 9.281,5.945 C9.289,6.417 9.196,6.868 9.022,7.277 Z"/>
</svg>