<svg 
 xmlns="http://www.w3.org/2000/svg"
 xmlns:xlink="http://www.w3.org/1999/xlink">
<path fill-rule="evenodd"
 d="M0.789,1.507 L0.903,1.507 L5.283,10.562 C5.412,10.829 5.692,11.000 6.000,11.000 C6.308,11.000 6.587,10.829 6.717,10.562 L11.097,1.507 L11.211,1.507 C11.647,1.507 12.000,1.170 12.000,0.754 C12.000,0.337 11.647,-0.000 11.211,-0.000 L9.395,-0.000 C8.959,-0.000 8.606,0.337 8.606,0.754 C8.606,1.158 8.940,1.487 9.359,1.505 L6.000,8.449 L2.641,1.505 C3.060,1.487 3.394,1.158 3.394,0.754 C3.394,0.337 3.041,-0.000 2.605,-0.000 L0.789,-0.000 C0.353,-0.000 -0.000,0.337 -0.000,0.754 C-0.000,1.170 0.353,1.507 0.789,1.507 Z"/>
</svg>