<svg xmlns="http://www.w3.org/2000/svg" xmlns:xlink="http://www.w3.org/1999/xlink" viewBox="0 0 373.9 199.3"><defs><clipPath id="a" transform="translate(-90.8 -178.2)"><rect x="81.5" y="81" transform="translate(-114.9 277.5) rotate(-45)" style="fill:none"/></clipPath></defs><title>Vector Smart Object3</title><g style="clip-path:url(#a)"><path d="M107.4,377.5H448.2A16.2,16.2,0,0,0,464.8,361V194.7c-.9-14-11.8-16.5-16.5-16.5H107.4c-4.8,0-15.7,2.5-16.5,16.5V361c.6,13.7,11.8,16.6,16.5,16.5Zm16-166.9h26.6v34.8a16.5,16.5,0,0,0,33,0V210.6h36.9l-.5,63.1a16.5,16.5,0,0,0,33,0V210.6H287v34.8a16.5,16.5,0,1,0,33,0V210.6h38.4v63.1a16.5,16.5,0,0,0,33,0V210.6h40.8V345.1h-309Zm0,0" transform="translate(-90.8 -178.2)"/></g></svg>