<svg 
 xmlns="http://www.w3.org/2000/svg"
 xmlns:xlink="http://www.w3.org/1999/xlink">
<path fill-rule="evenodd"
 d="M8.935,2.738 L8.035,0.550 C7.899,0.218 7.568,-0.000 7.200,-0.000 L1.800,-0.000 C1.431,-0.000 1.101,0.218 0.964,0.550 L0.064,2.738 C-0.022,2.946 -0.022,3.179 0.064,3.387 L0.964,5.575 C1.101,5.907 1.431,6.125 1.800,6.125 L2.250,6.125 C2.250,6.608 2.653,7.000 3.150,7.000 L3.600,7.000 L3.600,7.336 C3.600,8.377 4.185,9.327 5.091,9.757 C5.559,9.979 5.850,10.432 5.850,10.937 C5.850,11.636 5.219,12.250 4.499,12.250 C3.755,12.250 3.150,11.661 3.150,10.937 C3.150,10.454 2.747,10.062 2.250,10.062 C1.752,10.062 1.349,10.454 1.349,10.937 C1.349,12.626 2.763,14.000 4.499,14.000 C6.207,14.000 7.650,12.597 7.650,10.937 C7.650,9.758 6.972,8.703 5.881,8.185 C5.589,8.046 5.400,7.713 5.400,7.336 L5.400,7.000 L5.850,7.000 C6.347,7.000 6.750,6.608 6.750,6.125 L7.200,6.125 C7.568,6.125 7.899,5.907 8.035,5.575 L8.935,3.387 C9.021,3.179 9.021,2.946 8.935,2.738 ZM2.400,4.812 L1.451,4.812 L2.651,1.312 L3.600,1.312 L2.400,4.812 ZM4.374,4.812 L3.425,4.812 L4.625,1.312 L5.574,1.312 L4.374,4.812 ZM6.348,4.812 L5.400,4.812 L6.600,1.312 L7.549,1.312 L6.348,4.812 Z"/>
</svg>