<svg xmlns="http://www.w3.org/2000/svg" xmlns:xlink="http://www.w3.org/1999/xlink" viewBox="0 0 414.6 403.3"><defs><clipPath id="a" transform="translate(0 -6.6)"><rect x="197" width="256.8" height="410.88" style="fill:none"/></clipPath></defs><g style="clip-path:url(#a)"><path d="M261,179.5a25.6,25.6,0,0,0,25.6,25.6h12.8V215c0,30.4,16.7,58.2,42.4,70.8a38.2,38.2,0,0,1,21.6,34.5c0,20.5-17.9,38.4-38.4,38.4a38.4,38.4,0,0,1-38.4-38.4,25.6,25.6,0,1,0-51.2,0A89.7,89.7,0,0,0,325,409.9c48.6,0,89.6-41,89.6-89.6a89,89,0,0,0-50.3-80.5c-8.3-4.1-13.7-13.8-13.7-24.8v-9.8h12.8A25.6,25.6,0,0,0,389,179.5Zm116.6-38.4" transform="translate(0 -6.6)"/></g><path d="M374,46.6V141H40V46.6H374m20.8-40H19.2A19.2,19.2,0,0,0,0,25.8v136A19.2,19.2,0,0,0,19.2,181H394.8A19.2,19.2,0,0,0,414,161.8V25.8A19.2,19.2,0,0,0,394.8,6.6Z" transform="translate(0 -6.6)" style="fill:#0450a2"/></svg>