<svg 
 xmlns="http://www.w3.org/2000/svg"
 xmlns:xlink="http://www.w3.org/1999/xlink">
<path fill-rule="evenodd"
 d="M14.435,0.565 C14.057,0.188 13.604,-0.001 13.077,-0.001 L1.923,-0.001 C1.396,-0.001 0.943,0.188 0.565,0.565 C0.188,0.943 -0.001,1.395 -0.001,1.923 L-0.001,13.077 C-0.001,13.604 0.188,14.057 0.565,14.434 C0.943,14.812 1.396,15.001 1.923,15.001 L13.077,15.001 C13.604,15.001 14.057,14.812 14.435,14.434 C14.812,14.057 15.001,13.604 15.001,13.077 L15.001,1.923 C15.001,1.395 14.812,0.943 14.435,0.565 ZM5.386,5.405 C5.975,4.835 6.683,4.550 7.510,4.550 C8.343,4.550 9.055,4.835 9.644,5.405 C10.233,5.974 10.528,6.663 10.528,7.470 C10.528,8.278 10.233,8.966 9.644,9.536 C9.055,10.106 8.343,10.391 7.510,10.391 C6.683,10.391 5.975,10.106 5.386,9.536 C4.796,8.966 4.502,8.278 4.502,7.470 C4.502,6.663 4.796,5.974 5.386,5.405 ZM13.302,12.676 C13.302,12.845 13.243,12.987 13.126,13.101 C13.008,13.215 12.869,13.272 12.706,13.272 L2.265,13.272 C2.096,13.272 1.954,13.215 1.840,13.101 C1.726,12.987 1.669,12.845 1.669,12.676 L1.669,6.347 L3.046,6.347 C2.916,6.757 2.851,7.184 2.851,7.627 C2.851,8.877 3.307,9.943 4.218,10.826 C5.130,11.708 6.227,12.149 7.510,12.149 C8.356,12.149 9.138,11.947 9.854,11.543 C10.570,11.139 11.137,10.591 11.553,9.898 C11.970,9.204 12.179,8.447 12.179,7.627 C12.179,7.184 12.113,6.757 11.983,6.347 L13.302,6.347 L13.302,12.676 L13.302,12.676 ZM13.302,3.954 C13.302,4.143 13.237,4.303 13.106,4.433 C12.976,4.563 12.817,4.628 12.628,4.628 L10.928,4.628 C10.740,4.628 10.580,4.563 10.450,4.433 C10.320,4.303 10.254,4.143 10.254,3.954 L10.254,2.343 C10.254,2.161 10.320,2.003 10.450,1.869 C10.580,1.736 10.740,1.669 10.928,1.669 L12.628,1.669 C12.817,1.669 12.976,1.736 13.106,1.869 C13.237,2.003 13.302,2.161 13.302,2.343 L13.302,3.954 Z"/>
</svg>