<svg 
 xmlns="http://www.w3.org/2000/svg"
 xmlns:xlink="http://www.w3.org/1999/xlink">
<path fill-rule="evenodd"
 d="M7.791,8.478 C7.378,8.923 6.882,9.244 6.331,9.469 C5.810,9.681 5.239,9.788 4.674,9.859 C4.759,9.957 4.799,10.004 4.852,10.061 C5.620,10.870 6.390,11.677 7.155,12.490 C7.416,12.767 7.470,13.110 7.327,13.432 C7.170,13.783 6.818,14.015 6.474,13.990 C6.256,13.974 6.086,13.860 5.935,13.701 C5.356,13.088 4.766,12.488 4.199,11.864 C4.033,11.682 3.954,11.717 3.808,11.874 C3.226,12.504 2.634,13.124 2.038,13.741 C1.771,14.018 1.453,14.068 1.143,13.910 C0.813,13.742 0.603,13.389 0.619,13.033 C0.631,12.793 0.743,12.609 0.900,12.445 C1.659,11.648 2.417,10.850 3.174,10.052 C3.224,9.999 3.271,9.943 3.344,9.860 C2.311,9.747 1.380,9.480 0.582,8.825 C0.483,8.743 0.381,8.665 0.291,8.574 C-0.058,8.221 -0.093,7.818 0.183,7.402 C0.419,7.047 0.816,6.952 1.228,7.156 C1.308,7.196 1.384,7.245 1.457,7.298 C2.943,8.371 4.984,8.400 6.476,7.346 C6.624,7.227 6.782,7.130 6.965,7.080 C7.321,6.984 7.653,7.122 7.844,7.449 C8.063,7.823 8.060,8.187 7.791,8.478 ZM3.973,7.086 C2.131,7.079 0.619,5.474 0.630,3.535 C0.641,1.575 2.153,-0.005 4.014,0.000 C5.879,0.006 7.375,1.608 7.366,3.589 C7.357,5.524 5.835,7.093 3.973,7.086 ZM4.001,1.810 C3.078,1.809 2.342,2.589 2.349,3.561 C2.356,4.520 3.092,5.281 4.009,5.277 C4.923,5.274 5.651,4.502 5.648,3.540 C5.645,2.577 4.915,1.811 4.001,1.810 Z"/>
</svg>