<svg 
 xmlns="http://www.w3.org/2000/svg"
 xmlns:xlink="http://www.w3.org/1999/xlink">
<path fill-rule="evenodd"
 d="M3.999,-0.002 L3.999,-0.002 C1.786,-0.002 -0.001,1.774 -0.001,3.974 C-0.001,4.741 0.246,5.473 0.589,6.075 L3.196,10.559 C3.359,10.852 3.689,10.998 3.999,10.998 C4.310,10.998 4.624,10.852 4.803,10.559 L7.410,6.077 C7.756,5.476 8.000,4.757 8.000,3.977 C8.000,1.777 6.212,-0.002 3.999,-0.002 ZM3.999,5.149 C3.196,5.149 2.539,4.496 2.539,3.697 C2.539,2.898 3.196,2.246 3.999,2.246 C4.803,2.246 5.460,2.898 5.460,3.697 C5.460,4.498 4.803,5.149 3.999,5.149 Z"/>
</svg>