<svg 
 xmlns="http://www.w3.org/2000/svg"
 xmlns:xlink="http://www.w3.org/1999/xlink">
<path fill-rule="evenodd"
 d="M12.000,11.323 C12.000,12.475 8.889,13.000 6.000,13.000 C3.108,13.000 -0.000,12.475 -0.000,11.323 C-0.000,10.153 3.062,9.800 4.407,9.702 C3.273,7.885 1.840,5.330 1.840,4.016 C1.840,1.801 3.704,-0.000 5.997,-0.000 C8.290,-0.000 10.155,1.801 10.155,4.016 C10.155,5.330 8.721,7.885 7.587,9.702 C8.933,9.800 11.997,10.153 12.000,11.323 ZM9.583,4.016 C9.583,2.106 7.974,0.552 5.997,0.552 C4.023,0.552 2.414,2.106 2.414,4.016 C2.414,5.685 5.162,9.872 5.997,11.103 C6.832,9.872 9.583,5.685 9.583,4.016 ZM7.252,10.230 C6.706,11.082 6.294,11.689 6.236,11.755 C6.052,11.965 5.835,11.851 5.761,11.755 C5.706,11.684 5.291,11.082 4.745,10.230 C1.834,10.392 0.571,11.026 0.571,11.320 C0.571,11.702 2.485,12.445 5.997,12.445 C9.509,12.445 11.423,11.705 11.426,11.320 C11.426,11.023 10.163,10.392 7.252,10.230 ZM4.188,4.016 C4.188,3.051 4.998,2.268 5.997,2.268 C6.997,2.268 7.807,3.051 7.807,4.016 C7.807,4.982 6.997,5.765 5.997,5.765 C4.998,5.765 4.188,4.982 4.188,4.016 ZM7.236,4.016 C7.236,3.356 6.681,2.820 5.997,2.820 C5.313,2.820 4.759,3.356 4.759,4.016 C4.759,4.677 5.313,5.213 5.997,5.213 C6.681,5.213 7.236,4.677 7.236,4.016 Z"/>
</svg>