<svg 
 xmlns="http://www.w3.org/2000/svg"
 xmlns:xlink="http://www.w3.org/1999/xlink">
<path fill-rule="evenodd"
 d="M10.000,13.000 L10.000,10.000 L13.000,10.000 L13.000,13.000 L10.000,13.000 ZM10.000,5.000 L13.000,5.000 L13.000,8.000 L10.000,8.000 L10.000,5.000 ZM10.000,-0.000 L13.000,-0.000 L13.000,3.000 L10.000,3.000 L10.000,-0.000 ZM5.000,10.000 L8.000,10.000 L8.000,13.000 L5.000,13.000 L5.000,10.000 ZM5.000,5.000 L8.000,5.000 L8.000,8.000 L5.000,8.000 L5.000,5.000 ZM5.000,-0.000 L8.000,-0.000 L8.000,3.000 L5.000,3.000 L5.000,-0.000 ZM-0.000,10.000 L3.000,10.000 L3.000,13.000 L-0.000,13.000 L-0.000,10.000 ZM-0.000,5.000 L3.000,5.000 L3.000,8.000 L-0.000,8.000 L-0.000,5.000 ZM-0.000,-0.000 L3.000,-0.000 L3.000,3.000 L-0.000,3.000 L-0.000,-0.000 Z"/>
</svg>