<svg 
 xmlns="http://www.w3.org/2000/svg"
 xmlns:xlink="http://www.w3.org/1999/xlink">
<path fill-rule="evenodd"
 d="M12.641,0.184 C12.126,0.473 11.554,0.683 10.947,0.797 C10.460,0.305 9.768,-0.001 9.000,-0.001 C7.527,-0.001 6.333,1.130 6.333,2.524 C6.333,2.721 6.357,2.915 6.402,3.099 C4.186,2.994 2.221,1.989 0.905,0.461 C0.676,0.833 0.545,1.267 0.545,1.730 C0.545,2.606 1.016,3.380 1.731,3.832 C1.294,3.818 0.883,3.704 0.523,3.515 L0.523,3.546 C0.523,4.770 1.442,5.790 2.662,6.023 C2.439,6.080 2.203,6.111 1.959,6.111 C1.787,6.111 1.621,6.094 1.457,6.065 C1.797,7.068 2.781,7.798 3.948,7.819 C3.036,8.496 1.885,8.900 0.636,8.900 C0.421,8.900 0.208,8.888 -0.000,8.865 C1.180,9.581 2.581,9.999 4.088,9.999 C8.993,9.999 11.676,6.152 11.676,2.815 L11.667,2.488 C12.190,2.133 12.643,1.688 13.000,1.183 C12.521,1.383 12.008,1.519 11.469,1.580 C12.019,1.268 12.441,0.772 12.641,0.184 Z"/>
</svg>