<svg 
 xmlns="http://www.w3.org/2000/svg"
 xmlns:xlink="http://www.w3.org/1999/xlink">
<path fill-rule="evenodd"
 d="M7.490,9.749 L4.507,9.749 C4.092,9.749 3.740,9.593 3.450,9.279 C3.159,8.966 3.015,8.587 3.015,8.139 L3.015,6.997 L7.266,6.997 C7.649,6.997 7.979,6.849 8.254,6.554 C8.528,6.258 8.665,5.903 8.665,5.490 C8.665,5.076 8.528,4.722 8.253,4.426 C7.977,4.132 7.646,3.984 7.261,3.984 L3.015,3.984 L3.015,1.625 C3.015,1.178 2.867,0.796 2.573,0.478 C2.280,0.159 1.926,-0.001 1.515,-0.001 C1.093,-0.001 0.733,0.157 0.440,0.469 C0.146,0.782 -0.000,1.167 -0.000,1.627 L-0.000,8.139 C-0.000,9.479 0.440,10.623 1.321,11.573 C2.203,12.525 3.266,12.999 4.509,12.999 L7.491,12.999 C7.905,12.999 8.260,12.839 8.556,12.521 C8.852,12.203 9.000,11.820 9.000,11.374 C9.000,10.928 8.852,10.546 8.556,10.227 C8.260,9.909 7.905,9.749 7.490,9.749 Z"/>
</svg>