<svg 
 xmlns="http://www.w3.org/2000/svg"
 xmlns:xlink="http://www.w3.org/1999/xlink">
<path fill-rule="evenodd"
 d="M14.176,14.175 C13.626,14.726 12.963,15.001 12.188,15.001 L2.812,15.001 C2.037,15.001 1.374,14.726 0.824,14.175 C0.274,13.625 -0.001,12.963 -0.001,12.188 L-0.001,2.812 C-0.001,2.037 0.274,1.374 0.824,0.824 C1.374,0.274 2.037,-0.001 2.812,-0.001 L12.188,-0.001 C12.963,-0.001 13.626,0.274 14.176,0.824 C14.726,1.374 15.001,2.037 15.001,2.812 L15.001,12.188 C15.001,12.963 14.726,13.625 14.176,14.175 ZM5.644,0.926 L5.146,2.831 L4.628,0.926 L3.867,0.926 L4.101,1.600 C4.101,1.600 4.176,1.825 4.326,2.274 C4.554,2.945 4.703,3.459 4.775,3.817 L4.775,5.781 L5.498,5.781 L5.498,3.817 L5.498,3.817 L6.377,0.926 L5.644,0.926 ZM8.320,3.339 C8.320,2.961 8.252,2.678 8.115,2.489 C7.927,2.242 7.673,2.118 7.353,2.118 C7.021,2.118 6.767,2.242 6.592,2.489 C6.455,2.678 6.387,2.961 6.387,3.339 L6.387,4.609 C6.387,4.986 6.455,5.270 6.592,5.458 C6.767,5.706 7.021,5.830 7.353,5.830 C7.673,5.830 7.927,5.706 8.115,5.458 C8.252,5.283 8.320,4.999 8.320,4.609 L8.320,3.339 ZM10.743,2.167 L10.088,2.167 L10.088,4.931 C9.945,5.133 9.808,5.234 9.678,5.234 C9.581,5.234 9.528,5.182 9.522,5.077 C9.515,5.064 9.512,4.980 9.512,4.823 L9.512,2.167 L8.858,2.167 L8.858,5.028 C8.858,5.270 8.877,5.449 8.916,5.566 C8.988,5.742 9.128,5.829 9.336,5.829 C9.570,5.829 9.821,5.683 10.088,5.390 L10.088,5.781 L10.088,5.781 L10.743,5.781 L10.743,2.167 ZM12.686,7.636 C12.621,7.350 12.481,7.110 12.266,6.918 C12.051,6.726 11.804,6.614 11.524,6.581 C10.639,6.484 9.297,6.435 7.500,6.435 C5.710,6.435 4.371,6.484 3.486,6.581 C3.200,6.614 2.951,6.726 2.739,6.918 C2.527,7.111 2.389,7.350 2.324,7.636 C2.194,8.203 2.128,9.049 2.128,10.176 C2.128,11.322 2.194,12.168 2.324,12.715 C2.389,12.995 2.527,13.233 2.739,13.428 C2.951,13.624 3.196,13.738 3.476,13.770 C4.368,13.868 5.710,13.917 7.500,13.917 C9.291,13.917 10.632,13.868 11.524,13.770 C11.804,13.738 12.050,13.624 12.261,13.428 C12.473,13.233 12.612,12.995 12.677,12.715 C12.807,12.168 12.872,11.322 12.872,10.176 C12.872,9.023 12.810,8.177 12.686,7.636 ZM11.905,12.159 C11.729,12.419 11.469,12.549 11.124,12.549 C10.785,12.549 10.521,12.426 10.332,12.178 C10.196,12.002 10.127,11.722 10.127,11.338 L10.127,10.078 C10.127,9.694 10.192,9.414 10.323,9.238 C10.512,8.991 10.772,8.867 11.104,8.867 C11.436,8.867 11.690,8.991 11.866,9.238 C12.002,9.421 12.071,9.700 12.071,10.078 L12.071,10.820 L10.772,10.820 L10.772,11.455 C10.772,11.787 10.883,11.953 11.104,11.953 C11.260,11.953 11.358,11.869 11.397,11.699 C11.397,11.693 11.399,11.670 11.402,11.631 C11.405,11.592 11.407,11.538 11.407,11.470 L11.407,11.470 L11.407,11.260 L12.071,11.260 L12.071,11.260 L12.071,11.348 C12.071,11.537 12.065,11.677 12.052,11.768 C12.032,11.911 11.983,12.041 11.905,12.159 ZM10.772,10.283 L11.417,10.283 L11.417,9.951 C11.417,9.619 11.309,9.453 11.094,9.453 C10.880,9.453 10.772,9.619 10.772,9.951 L10.772,10.283 ZM9.034,12.549 C8.806,12.549 8.584,12.416 8.369,12.149 L8.369,12.500 L7.715,12.500 L7.715,7.685 L8.369,7.685 L8.369,9.258 C8.578,8.997 8.799,8.867 9.034,8.867 C9.300,8.867 9.473,9.004 9.551,9.277 C9.596,9.414 9.619,9.655 9.619,10.000 L9.619,11.426 C9.619,11.765 9.597,12.002 9.551,12.139 C9.473,12.412 9.300,12.549 9.034,12.549 ZM8.975,9.941 C8.975,9.616 8.881,9.453 8.692,9.453 C8.581,9.453 8.474,9.505 8.369,9.609 L8.369,11.797 C8.474,11.901 8.581,11.954 8.692,11.954 C8.881,11.953 8.975,11.794 8.975,11.475 L8.975,9.941 ZM6.504,12.109 C6.250,12.402 6.002,12.549 5.762,12.549 C5.547,12.549 5.410,12.458 5.351,12.276 C5.312,12.171 5.293,11.996 5.293,11.748 L5.293,8.916 L5.937,8.916 L5.937,11.553 C5.937,11.709 5.941,11.794 5.947,11.807 C5.954,11.904 6.002,11.953 6.094,11.953 C6.224,11.953 6.361,11.852 6.504,11.651 L6.504,8.916 L7.158,8.916 L7.158,12.500 L6.504,12.500 L6.504,12.109 ZM4.414,12.500 L3.691,12.500 L3.691,8.369 L2.929,8.369 L2.929,7.685 L5.195,7.685 L5.195,8.369 L4.414,8.369 L4.414,12.500 ZM7.353,5.234 C7.145,5.234 7.041,5.068 7.041,4.736 L7.041,3.212 C7.041,2.873 7.145,2.704 7.353,2.704 C7.562,2.704 7.666,2.873 7.666,3.212 L7.666,4.736 C7.666,5.068 7.562,5.234 7.353,5.234 Z"/>
</svg>