<svg xmlns="http://www.w3.org/2000/svg" viewBox="-377 228.7 204.7 105.3"><path d="M-268 298.4v17h16v-3h8v3h3v-17zm-30 0h29v17h-29zm-25.4 1.5c-1.2-.8-2.5-1.4-4-1.7-.8-.2-1.7-.3-2.6-.3-2.4 0-4.7.7-6.5 2-3.1 2.1-5.1 5.6-5.1 9.6 0 6.4 5.2 11.6 11.6 11.6 4.5 0 8.4-2.5 10.3-6.3.8-1.6 1.3-3.4 1.3-5.4.1-3.9-1.9-7.4-5-9.5zm-6.5 16.1c-3.6 0-6.5-2.9-6.5-6.5s2.9-6.5 6.5-6.5 6.5 2.9 6.5 6.5-2.9 6.5-6.5 6.5zm108-18.1c-6.4 0-11.6 5.2-11.6 11.6 0 2 .5 3.9 1.4 5.5 2 3.6 5.8 6.1 10.2 6.1 5.5 0 10.2-3.9 11.3-9.1.2-.8.3-1.7.3-2.5 0-6.4-5.2-11.6-11.6-11.6zm0 18.1c-1.6 0-3.1-.6-4.2-1.6-1.4-1.2-2.3-3-2.3-5 0-3.6 2.9-6.5 6.5-6.5s6.5 2.9 6.5 6.5c0 1.2-.3 2.3-.8 3.2-1.1 2.1-3.2 3.4-5.7 3.4z"/><path d="M-218.4 309.5c0-1.9-1.6-3.5-3.5-3.5s-3.5 1.6-3.5 3.5 1.6 3.5 3.5 3.5 3.5-1.6 3.5-3.5zm-3.5 2.2c-1.2 0-2.2-1-2.2-2.2s1-2.2 2.2-2.2 2.2 1 2.2 2.2-.9 2.2-2.2 2.2zm-104.5-2.2c0-1.9-1.6-3.5-3.5-3.5s-3.5 1.6-3.5 3.5 1.6 3.5 3.5 3.5c2 0 3.5-1.6 3.5-3.5zm-3.5 2.2c-1.2 0-2.2-1-2.2-2.2s1-2.2 2.2-2.2c1.2 0 2.2 1 2.2 2.2s-1 2.2-2.2 2.2z"/><path d="M-189.6 293.8v-21c0-1.3-.3-2.6-.7-3.8l-8-20.5c1.2-.6 1.3-2.4 0-3-6.7-3.4-25.9-4-32.6-4.1-1.3 0-2.4 1-2.4 2.3V283l4.2 6c.2.3.2.8 0 1l-2 2.2H-359s-.3 2.2.4 2.7l9.2 5.4h9.7c.1 0 .2-.4.3-.5.2-.2.3-.4.5-.6.3-.2.5-.5.8-.7l.3-.3c.4-.2.7-.5 1.1-.7.1 0 .1-.1.2-.1.3-.2.6-.3.9-.5.1 0 .2-.1.2-.1.8-.3 1.6-.6 2.4-.7.1 0 .2 0 .3-.1.3-.1.6-.1.9-.1h.4c.4 0 .8-.1 1.3-.1 2.8 0 5.4.8 7.7 2.4 3.7 2.5 5.7 6 5.9 11.4 0 0 2.7 5.7 8.8 5.7h8.7v-18.4h58.7v18.5h5.9c-.8-2.5-1.2-3.8-1.2-5.8 0-7.7 6.5-13.9 14.3-13.6.5 0 1 .1 1.5.1l-3.4-5.1v-45h3.3l14.5 1.1c1.4.2 2.6 1.1 3 2.5l4.6 15.5v36.7c0 2.4-2 4.3-4.3 4.3h-6.6c.3 1.2.5 2.3.5 3.5 0 .9-.1 1.6-.2 2.5h15.3c2.2 0 3.9-1.8 4.1-3.9l1-13c-.1 0-1.6-1.4-1.6-1.4z"/><path d="M-214.8 265.6c-1.1 0-2.1-.7-2.8-1.6l-.8-.8c-.8-1-1.5-2.3-1.5-3.6v-13.1h-2v44.2l3.6 5.7c4.3 1.2 7.7 4.4 9.2 8.6h7.2c1.7 0 3.2-1.4 3.2-3.2v-36.2h-16.1zm2 15.1h-1v-2h-7.1v-1h8.1v3zm-121.1 8H-357c-1.2 0-2.1-1-2.1-2.1v-9.8c0-1.2 1-2.1 2.1-2.1h23.1c1.2 0 2.1 1 2.1 2.1v9.8c0 1.1-1 2.1-2.1 2.1zm31.2 0h-23.1c-1.2 0-2.1-1-2.1-2.1v-9.8c0-1.2 1-2.1 2.1-2.1h23.1c1.2 0 2.1 1 2.1 2.1v9.8c0 1.1-.9 2.1-2.1 2.1zm31.2 0h-23.1c-1.2 0-2.1-1-2.1-2.1v-9.8c0-1.2 1-2.1 2.1-2.1h23.1c1.2 0 2.1 1 2.1 2.1v9.8c0 1.1-.9 2.1-2.1 2.1zm31.2 0h-23.1c-1.2 0-2.1-1-2.1-2.1v-9.8c0-1.2 1-2.1 2.1-2.1h23.1c1.2 0 2.1 1 2.1 2.1v9.8c0 1.1-.9 2.1-2.1 2.1z"/></svg>