<svg xmlns="http://www.w3.org/2000/svg" viewBox="-377 228.7 204.7 105.3"><path d="M-259.7 303.9V321h16v-3.1h8v3.1h3v-17.1zm-29.9 0h28.9V321h-28.9zm-25.3 1.5c-1.2-.8-2.5-1.4-4-1.7-.8-.2-1.7-.3-2.6-.3-2.4 0-4.7.7-6.5 2-3.1 2.1-5.1 5.6-5.1 9.7 0 6.4 5.2 11.7 11.6 11.7 4.5 0 8.4-2.5 10.3-6.3.8-1.6 1.3-3.4 1.3-5.4.1-4.1-1.9-7.6-5-9.7zm-6.5 16.2c-3.6 0-6.5-2.9-6.5-6.5s2.9-6.5 6.5-6.5 6.5 2.9 6.5 6.5-2.9 6.5-6.5 6.5zm107.7-18.2c-6.4 0-11.6 5.2-11.6 11.7 0 2 .5 3.9 1.4 5.5 2 3.6 5.8 6.1 10.2 6.1 5.5 0 10.2-3.9 11.3-9.2.2-.8.3-1.7.3-2.5 0-6.4-5.2-11.6-11.6-11.6zm0 18.2c-1.6 0-3.1-.6-4.2-1.6-1.4-1.2-2.3-3-2.3-5 0-3.6 2.9-6.5 6.5-6.5s6.5 2.9 6.5 6.5c0 1.2-.3 2.3-.8 3.2-1.1 2.1-3.2 3.4-5.7 3.4z"/><path d="M-210.2 315c0-1.9-1.6-3.5-3.5-3.5s-3.5 1.6-3.5 3.5 1.6 3.5 3.5 3.5 3.5-1.6 3.5-3.5zm-3.5 2.2c-1.2 0-2.2-1-2.2-2.2s1-2.2 2.2-2.2 2.2 1 2.2 2.2-.9 2.2-2.2 2.2zm-104.2-2.2c0-1.9-1.6-3.5-3.5-3.5s-3.5 1.6-3.5 3.5 1.6 3.5 3.5 3.5c2 0 3.5-1.6 3.5-3.5zm-3.5 2.2c-1.2 0-2.2-1-2.2-2.2s1-2.2 2.2-2.2c1.2 0 2.2 1 2.2 2.2s-1 2.2-2.2 2.2z"/><path d="M-181.4 299.2V278c0-1.3-.3-2.6-.7-3.8l-8-20.6c1.2-.6 1.3-2.4 0-3-6.7-3.4-25.8-4-32.5-4.1-1.3 0-2.4 1-2.4 2.3v39.6l4.2 6c.2.3.2.8 0 1l-2 2.2h-127.6s-.3 2.2.4 2.7l9.2 5.4h9.7c.1 0 .2-.4.3-.5.2-.2.3-.4.5-.6.3-.2.5-.5.8-.7l.3-.3c.4-.2.7-.5 1.1-.7.1 0 .1-.1.2-.1.3-.2.6-.3.9-.5.1 0 .2-.1.2-.1.8-.3 1.6-.6 2.4-.7.1 0 .2 0 .3-.1.3-.1.6-.1.9-.1h.4c.4 0 .8-.1 1.3-.1 2.8 0 5.4.8 7.7 2.4 3.7 2.5 5.7 6 5.9 11.5 0 0 2.7 5.7 8.8 5.7h8.7v-18.5h58.4v18.6h5.9c-.8-2.5-1.2-3.8-1.2-5.8 0-7.7 6.5-14 14.3-13.7.5 0 1 .1 1.5.1l-3.4-5.1v-45.3h3.3l14.5 1.1c1.4.2 2.6 1.1 3 2.5l4.6 15.6v36.9c0 2.4-2 4.3-4.3 4.3h-6.6c.3 1.2.5 2.3.5 3.5 0 .9-.1 1.6-.2 2.5h15.3c2.2 0 3.9-1.8 4.1-3.9l1-13.1c-.3.1-1.7-1.3-1.7-1.3z"/><path d="M-206.6 270.8c-1.1 0-2.1-.7-2.8-1.6l-.8-.8c-.8-1-1.5-2.3-1.5-3.6v-13.2h-2v44.5l3.6 5.7c4.3 1.2 7.7 4.4 9.2 8.7h7.2c1.7 0 3.2-1.4 3.2-3.2v-36.5h-16.1zm2 15.2h-1v-2h-7.1v-1h8.1v3zm-20.5-41.2c-.1.1-.2.1-.3.2.1-.1.2-.1.3-.2zm19.2-1.5c0-.3-.1-.6-.3-.8.2.2.3.5.3.8 0 .4-.2.8-.6 1.1.4-.3.6-.7.6-1.1zm-36.1-6.9l-14.4 14.7-.1.1.1-.1 14.4-14.7zm-6.9 56.7c0 .1-.1.1-.1.2 0-.1 0-.1.1-.2l23.3-47.8c0-.1.1-.1.1-.2 0 .1-.1.1-.1.2l-23.3 47.8zm-96.8-40.8c0-.1.1-.2.1-.2-.1 0-.1.1-.1.2l-12 25.7s0 .1-.1.1c0 0 0-.1.1-.1l12-25.7z"/><path d="M-206.2 242.4c-.2-.2-.5-.4-.8-.5l-33.9-5.9h-.5c-.1 0-.1 0-.2.1-.1 0-.1.1-.2.1s-.1.1-.2.2l-14.4 14.7-.1.1c-.1.1-.2.1-.3.2-.1 0-.2.1-.3.1h-87.4c-.2 0-.4 0-.5.1-.1.1-.2.1-.3.2l-.2.2c-.1.1-.1.2-.1.2l-12.1 25.8s0 .1-.1.1c0 .1-.1.2-.1.3v.6c0 .1.1.2.1.2s0 .1.1.1c0 .1.1.1.2.2l.2.2c.1.1.2.1.2.1l36.1 14c.2.1.3.1.5.1h70.4c.1 0 .1 0 .2-.1.1 0 .2-.1.3-.1.1-.1.2-.1.3-.2l.1-.1c0-.1.1-.1.1-.2l23.3-47.8c0-.1.1-.1.1-.2s.1-.1.1-.1c.1-.1.2-.2.3-.2.2-.1.4-.2.7-.2h17.2c.3 0 .5-.1.8-.2.3-.2.6-.6.6-1.1.1-.4 0-.7-.2-1zm-138 34.3c-2.1-.8-3.1-3.2-2.1-5.3l4.7-10.1c.6-1.4 2-2.3 3.5-2.3h3.9l-8.6 18.2-1.4-.5zm7.1 2.7l9.5-20.4h6.6l-10.7 22.5-5.4-2.1zm16.5 6.4l-5.4-2.1 11.5-24.6h6.5l-12.6 26.7zm6.5.5l12.8-27.3h6.5l-12.9 27.3h-6.4zm13.1 0l12.8-27.3h6.5l-12.9 27.3h-6.4zm13.1 0l12.8-27.3h6.5l-12.9 27.3h-6.4zm13.1 0l12.8-27.2h6.5l-12.9 27.3h-6.4v-.1zm20.1 0h-6.4l12.8-27.3h6.5l-12.9 27.3zm5.3 7.4c-.1.1-.2.1-.3.1.1 0 .2-.1.3-.1z"/><path d="M-357.8 278.4c0-.1 0-.2.1-.3-.1.1-.1.2-.1.3zm116.7-42.4s.1 0 0 0c.1 0 .1 0 0 0zm-9 57.9h.2-.2zm-6.6-42.5c.1 0 .2-.1.3-.2-.1.1-.2.1-.3.2zm32.3-6.8c-.3 0-.5.1-.7.2.2-.1.4-.2.7-.2h17.2c.3 0 .5-.1.8-.2-.2.2-.5.2-.8.2h-17.2z"/></svg>