<svg xmlns="http://www.w3.org/2000/svg" viewBox="0 0 204.7 105.3"><path d="M109.9 69.4v17.3h16.3v-2h8.1v2h3.1V69.4zm-17.3 0h16.3v17.3H92.6zm-47.3 2.1c-1.2-.8-2.5-1.4-4.1-1.7-.8-.2-1.7-.3-2.5-.3-2.4 0-4.7.7-6.6 2-3.1 2.1-5.1 5.7-5.1 9.7 0 6.5 5.2 11.7 11.7 11.7 4.5 0 8.4-2.5 10.4-6.3.8-1.6 1.3-3.5 1.3-5.4 0-4.1-2-7.7-5.1-9.7zm-6.5 16.1c-3.7 0-6.6-2.9-6.6-6.6 0-3.7 2.9-6.6 6.6-6.6s6.6 2.9 6.6 6.6c0 3.7-3 6.6-6.6 6.6zm117.9-18.2c-6.5 0-11.7 5.2-11.7 11.7 0 2 .5 4 1.4 5.6 2 3.7 5.8 6.1 10.3 6.1 5.6 0 10.3-4 11.4-9.2.2-.8.3-1.6.3-2.5 0-6.5-5.2-11.7-11.7-11.7zm.1 18.2c-1.6 0-3.2-.6-4.3-1.5-1.4-1.2-2.3-3.1-2.3-5 0-3.7 2.9-6.6 6.6-6.6s6.6 2.9 6.6 6.6c0 1.2-.3 2.2-.8 3.3-1.3 1.9-3.4 3.2-5.8 3.2z"/><path d="M160.2 81.1c0-1.9-1.6-3.6-3.6-3.6-1.9 0-3.6 1.6-3.6 3.6s1.6 3.6 3.6 3.6 3.6-1.6 3.6-3.6zm-3.4 2.2c-1.2 0-2.2-1-2.2-2.2 0-1.2 1-2.2 2.2-2.2s2.2 1 2.2 2.2c0 1.2-1 2.2-2.2 2.2zm-83.3-2.2c0-1.9-1.6-3.6-3.6-3.6s-3.6 1.6-3.6 3.6 1.6 3.6 3.6 3.6 3.6-1.6 3.6-3.6zM70 83.3c-1.2 0-2.2-1-2.2-2.2 0-1.2 1-2.2 2.2-2.2 1.2 0 2.2 1 2.2 2.2.1 1.2-.9 2.2-2.2 2.2zm-27.7-2.2c0-1.9-1.6-3.6-3.6-3.6-1.9 0-3.6 1.6-3.6 3.6s1.6 3.6 3.6 3.6 3.6-1.6 3.6-3.6zm-3.5 2.2c-1.2 0-2.2-1-2.2-2.2 0-1.2 1-2.2 2.2-2.2 1.2 0 2.2 1 2.2 2.2.1 1.2-1 2.2-2.2 2.2z"/><path d="M70 69.4c-6.5 0-11.7 5.2-11.7 11.7 0 2 .5 4 1.4 5.6 2 3.7 5.8 6.1 10.3 6.1 4.5 0 8.2-2.4 10.3-6.1.5-.9.9-1.9 1.1-3.1.2-.8.3-1.6.3-2.5 0-6.5-5.3-11.7-11.7-11.7zm0 18.2c-1.2 0-2.4-.4-3.5-1-.3-.2-.5-.4-.8-.6-1.4-1.2-2.3-3.1-2.3-5 0-3.7 2.9-6.6 6.6-6.6 3.7 0 6.6 2.9 6.6 6.6 0 1.2-.3 2.2-.8 3.3-.5.9-1.3 1.7-2.2 2.3-1.1.7-2.2 1-3.6 1zm73.6-25.1V50.1c-4.1 0-6.2 2.7-6.2 6.2s2.1 6.2 6.2 6.2zm20.2-25.6c-1.1 0-2.1-.7-2.8-1.6l-.8-.8c-.8-1-1.5-2.3-1.5-3.6V17.7h-2v44.6l3.7 5.8c4.3 1.2 7.7 4.5 9.3 8.6h7.3c1.7 0 3.2-1.4 3.2-3.2V36.9h-16.4zm2 15.3h-1v-2h-7.1v-1h8.1v3z"/><path d="M190.6 66.5l-1.4-1.1V44.2c0-1.3-.2-2.6-.7-3.9l-8-20.6c1.2-.6 1.2-2.4 0-3.1-6.7-3.5-26-4.1-32.7-4.2-1.2 0-2.3 1-2.3 2.2v39.7l4.2 6c.2.2.1.6-.1.8l-2 2H74.4V48.3c0-1.2-1-2.2-2.2-2.2h-41c-1.2 0-2.2 1-2.2 2.2V51c0 1.2 1 2.2 2.2 2.2H44c1.2 0 2.2 1 2.2 2.2v7.7h-35c-.3 0-.5.2-.5.4-.1.7-.1 1.9.4 2.3l9.3 5.4h8.5c.1 0 1-1.1 2-1.7.4-.2.7-.5 1.1-.7.1 0 .8-.4 1.1-.5.1 0 1.8-.7 2.6-.8.1 0 .9-.2 1.2-.2.1 0 1.2-.1 1.6-.1 2.7 0 5.5.8 7.7 2.3 3.8 2.5 6 6.8 6 11.4 0 2-.4 3.6-1.2 5.6h6.2c-1.2-3.1-1.5-5.2-.9-9 .6-3.2 2.5-6.1 5.2-7.9 10.6-6.6 21.9 1.1 21.9 11.3 0 1-.1 2-.3 2.9-.2.9-.5 1.6-.9 2.6h9.3V68.3h46.8v18.3h5.8c-1-2.6-1.4-4.4-1.1-7.5.4-4.2 3-7.9 6.8-9.8 4.8-2.4 6.9-2.1 9.1-1.8l-3.3-5.2V16.6h3.1l14.6 1.6c1.4.2 2.6 1.1 3.1 2.5l4.7 15.7v38.3c0 1.6-1.3 2.9-2.9 2.9h-8.3c.3 1 .5 2.3.5 3.6 0 .9-.1 1.5-.2 2.5h15.5c2.1 0 4-1.6 4.2-3.9l1-13c-.2-.1-.3-.2-.3-.3zM68 58.3H52c-.2 0-.5-.1-.6-.3-1.7-1.8-.4-3.8 1.2-3.8h16c.2 0 .5.1.6.3 1.7 1.7.5 3.8-1.2 3.8z"/></svg>