<svg xmlns="http://www.w3.org/2000/svg" viewBox="0 0 204.7 105.3"><path d="M92.4 70v17.1h16v-3h7.9v3h2.7V70zm-17.6 0h16.6v17.1H74.8zm-12.7 1.5c-1.2-.8-2.5-1.4-4-1.7-.8-.2-1.7-.3-2.6-.3-2.4 0-4.7.7-6.5 2-3.1 2.1-5.1 5.6-5.1 9.7 0 6.5 5.2 11.7 11.6 11.7 4.5 0 8.4-2.5 10.3-6.3.8-1.6 1.3-3.4 1.3-5.4.1-4.1-1.9-7.6-5-9.7zm-6.5 16.2c-3.6 0-6.5-2.9-6.5-6.6s2.9-6.6 6.5-6.6 6.5 2.9 6.5 6.6-2.9 6.6-6.5 6.6zm82.8-18.3c-6.4 0-11.6 5.2-11.6 11.7 0 2 .5 3.9 1.4 5.5 2 3.6 5.8 6.1 10.2 6.1 5.5 0 10.2-3.9 11.3-9.2.2-.8.3-1.7.3-2.5 0-6.3-5.2-11.6-11.6-11.6zm0 18.3c-1.6 0-3.1-.6-4.2-1.6-1.4-1.2-2.3-3-2.3-5 0-3.6 2.9-6.6 6.5-6.6s6.5 2.9 6.5 6.6c0 1.2-.3 2.3-.8 3.2-1.1 2.1-3.2 3.4-5.7 3.4z"/><path d="M141.9 81.1c0-1.9-1.6-3.5-3.5-3.5s-3.5 1.6-3.5 3.5 1.6 3.5 3.5 3.5c1.9.1 3.5-1.5 3.5-3.5zm-3.5 2.3c-1.2 0-2.2-1-2.2-2.2s1-2.2 2.2-2.2c1.2 0 2.2 1 2.2 2.2s-.9 2.2-2.2 2.2zm-79.3-2.3c0-1.9-1.6-3.5-3.5-3.5s-3.5 1.6-3.5 3.5 1.6 3.5 3.5 3.5c2 .1 3.5-1.5 3.5-3.5zm-3.5 2.3c-1.2 0-2.2-1-2.2-2.2s1-2.2 2.2-2.2 2.2 1 2.2 2.2-1 2.2-2.2 2.2z"/><path d="M170.7 65.3V44.2c0-1.3-.3-2.6-.7-3.8l-8-20.7c1.2-.6 1.3-2.4 0-3-6.7-3.4-25.9-4-32.6-4.1-1.3 0-2.4 1-2.4 2.3v39.6l4.2 6c.2.3.2.8 0 1l-2 2.2h-102s-.3 2.2.4 2.7L38 71.9h7.7c.1 0 .2-.4.3-.5.2-.2.3-.4.5-.6.3-.2.5-.5.8-.7l.3-.3c.4-.2.7-.5 1.1-.7.1 0 .1-.1.2-.1.3-.2.6-.3.9-.5.1 0 .2-.1.2-.1.8-.3 1.6-.6 2.4-.7.1 0 .2 0 .3-.1.3-.1.6-.1.9-.1h.4c.4 0 .8-.1 1.3-.1 2.8 0 5.4.8 7.7 2.4 3.7 2.5 5.7 6 5.9 11.5 0 0 1.9 5.8 4.8 5.7V68.4H120V87h5.9c-.8-2.5-1.2-3.8-1.2-5.8 0-7.8 6.5-14 14.3-13.7.5 0 1 .1 1.5.1l-3.4-5.1V17.1h3.3l14.5 1.1c1.4.2 2.6 1.1 3 2.5l4.6 15.6v37c0 2.4-2 4.3-4.3 4.3h-6.6c.3 1.2.5 2.3.5 3.5 0 .9-.1 1.6-.2 2.5h15.3c2.2 0 3.9-1.8 4.1-3.9l1-13.1c-.1.1-1.6-1.3-1.6-1.3z"/><path d="M145.5 36.9c-1.1 0-2.1-.7-2.8-1.6l-.8-.8c-.8-1-1.5-2.3-1.5-3.6V17.6h-2v44.5l3.6 5.7c4.3 1.2 7.7 4.4 9.2 8.7h7.2c1.7 0 3.2-1.4 3.2-3.2V36.9h-16.1zm0 15.2h-1v-2h-5.1v-1h6.1v3zm-26.2 3.3c0 3.5 2.6 6.3 5.8 6.3V49.1c-3.1 0-5.8 2.8-5.8 6.3z"/></svg>