<svg xmlns="http://www.w3.org/2000/svg" viewBox="-377 228.7 204.7 105.3"><path d="M-261 305.4v17h16v-2h8v2h3v-17zm-17 0h16v17h-16zm-46.5 2c-1.2-.8-2.5-1.4-4-1.7-.8-.2-1.7-.3-2.5-.3-2.4 0-4.6.7-6.5 2-3 2.1-5 5.6-5 9.5 0 6.4 5.1 11.5 11.5 11.5 4.4 0 8.3-2.5 10.2-6.2.8-1.6 1.3-3.4 1.3-5.3 0-4-2-7.5-5-9.5zm-6.4 15.9c-3.6 0-6.5-2.9-6.5-6.5s2.9-6.5 6.5-6.5 6.5 2.9 6.5 6.5-3 6.5-6.5 6.5zm115.9-17.9c-6.4 0-11.5 5.1-11.5 11.5 0 2 .5 3.9 1.4 5.5 2 3.6 5.7 6 10.1 6 5.5 0 10.1-3.9 11.2-9 .2-.8.3-1.6.3-2.5 0-6.4-5.1-11.5-11.5-11.5zm.1 17.9c-1.6 0-3.1-.6-4.2-1.5-1.4-1.2-2.3-3-2.3-4.9 0-3.6 2.9-6.5 6.5-6.5s6.5 2.9 6.5 6.5c0 1.2-.3 2.2-.8 3.2-1.2 1.9-3.3 3.2-5.7 3.2z"/><path d="M-211.5 316.9c0-1.9-1.6-3.5-3.5-3.5s-3.5 1.6-3.5 3.5 1.6 3.5 3.5 3.5 3.5-1.6 3.5-3.5zm-3.4 2.1c-1.2 0-2.2-1-2.2-2.2 0-1.2 1-2.2 2.2-2.2s2.2 1 2.2 2.2c0 1.2-1 2.2-2.2 2.2zm-81.9-2.1c0-1.9-1.6-3.5-3.5-3.5s-3.5 1.6-3.5 3.5 1.6 3.5 3.5 3.5 3.5-1.6 3.5-3.5zm-3.4 2.1c-1.2 0-2.2-1-2.2-2.2 0-1.2 1-2.2 2.2-2.2 1.2 0 2.2 1 2.2 2.2 0 1.2-1 2.2-2.2 2.2zm-27.3-2.1c0-1.9-1.6-3.5-3.5-3.5s-3.5 1.6-3.5 3.5 1.6 3.5 3.5 3.5 3.5-1.6 3.5-3.5zm-3.4 2.1c-1.2 0-2.2-1-2.2-2.2 0-1.2 1-2.2 2.2-2.2 1.2 0 2.2 1 2.2 2.2 0 1.2-1 2.2-2.2 2.2z"/><path d="M-300.2 305.4c-6.4 0-11.5 5.1-11.5 11.5 0 2 .5 3.9 1.4 5.5 2 3.6 5.7 6 10.1 6 4.4 0 8.1-2.4 10.1-6 .5-.9.9-1.9 1.1-3 .2-.8.3-1.6.3-2.5 0-6.4-5.2-11.5-11.5-11.5zm0 17.9c-1.2 0-2.4-.4-3.4-1-.3-.2-.5-.4-.8-.6-1.4-1.2-2.3-3-2.3-4.9 0-3.6 2.9-6.5 6.5-6.5s6.5 2.9 6.5 6.5c0 1.2-.3 2.2-.8 3.2-.5.9-1.3 1.7-2.2 2.3-1.1.7-2.2 1-3.5 1zm60.2-24.7v-12.2c-4 0-6.1 2.7-6.1 6.1s2.1 6.1 6.1 6.1z"/><path d="M-181.6 302.5l-1.4-1.1v-20.8c0-1.3-.2-2.6-.7-3.8l-7.9-20.3c1.2-.6 1.2-2.4 0-3-6.6-3.4-25.6-4-32.2-4.1-1.2 0-2.3 1-2.3 2.2v39l4.1 5.9c.2.2.1.6-.1.8l-2 2h-6l.2-22.6c0-1.8-1.9-2.9-3.5-2l-3.5 2c-.2.1-.3.3-.3.5v22.2h-61.2l-45.8-19-.5-2.5c-.4-1.9-2.3-3-4.1-2.4-1.9.5-3.2 2.2-3.2 4.1v19.7h-6.6s-.3 2.2.4 2.7l9.1 5.3h8.4c.1 0 1-1.1 2-1.7.4-.2.7-.5 1.1-.7.1 0 .8-.4 1.1-.5.1 0 1.8-.7 2.6-.8.1 0 .9-.2 1.2-.2.1 0 1.2-.1 1.6-.1 2.7 0 5.4.8 7.6 2.3 3.7 2.5 5.9 6.7 5.9 11.2 0 2-.4 3.5-1.2 5.5h6.1c-.8-2-1.2-3.6-1.2-5.5 0-7.4 6.1-13.5 13.5-13.5s13.5 6.1 13.5 13.5c0 1-.1 2-.3 2.9s-.5 1.6-.9 2.6h9.1v-18h46v18h5.7c-.8-2-1.2-3.5-1.2-5.5 0-7.4 6.1-13.5 13.5-13.5.8 0 1.5.1 2.2.2l-3.2-5.1v-45h3l14.4 1.6c1.4.2 2.6 1.1 3 2.5l4.6 15.4v36.4c0 2.3-1.8 4.1-4.1 4.1h-6.9c.3 1 .5 2.3.5 3.5 0 .9-.1 1.5-.2 2.5h15.2c2.1 0 3.9-1.6 4.1-3.8l1-12.8c-.1-.1-.2-.2-.2-.3zm-158.6-3.1l-2.3-10.9 23.4 10.9h-21.1z"/><path d="M-328.5 239.3l-5.3-3.9h-31.7l16.4 17.6-6.1 20.3 10.7-1.3 14.7 6.2 20.2-38.5zm43.6.9l-22.3-.5-20.6 39.4 21.4 9.1 25.2-47.8c-1.2-.1-2.5-.2-3.7-.2zm25.1 5.3c-3-1.4-6.1-2.5-9.4-3.2l-3.6-.8c-2-.4-4-.8-6-1l-25.5 48.5 4.4 1.9c2.7 1.4 8.7 3.9 12.8 5.3.5.2 1.1.4 1.6.5 1 .3 1.9.6 2.9.8l26.6-50.3c-1.2-.6-2.5-1.2-3.8-1.7zm5.7 2.7l-26.2 49.7c2.1.3 4.3.5 6.6.5 18.6 0 33.7-12.4 33.7-27.7 0-9.2-5.6-17.4-14.1-22.5zm46.1 25.2c-1.1 0-2.1-.7-2.8-1.6l-.8-.8c-.8-1-1.5-2.3-1.5-3.5v-13h-2v43.9l3.6 5.7c4.2 1.2 7.6 4.4 9.1 8.5h7.2c1.7 0 3.1-1.4 3.1-3.1v-36.1H-208zm2 15h-1v-2h-7v-1h8v3z"/></svg>