<svg xmlns="http://www.w3.org/2000/svg"><path fill-rule="evenodd" d="M6.837 2.751A34.666 34.666 0 0 0 4.71.094a.282.282 0 0 0-.42 0 34.386 34.386 0 0 0-2.127 2.657C.728 4.748 0 6.298 0 7.358 0 9.918 2.019 12 4.5 12S9 9.918 9 7.358c0-1.06-.728-2.61-2.163-4.607zm-1.888 7.747a3.08 3.08 0 0 1-.722.087c-1.732 0-3.141-1.454-3.141-3.24 0-.246.074-.693.424-1.42a.16.16 0 0 1 .192-.086c.076.023.124.1.115.181-.008.07-.012.135-.012.195 0 1.915 1.32 3.578 3.139 3.955a.168.168 0 0 1 .131.162.167.167 0 0 1-.126.166z"/></svg>