<svg xmlns="http://www.w3.org/2000/svg"><path fill-rule="evenodd" d="M5.9.001A5.997 5.997 0 0 0 .001 6.1 5.997 5.997 0 0 0 6.1 11.999 5.997 5.997 0 0 0 11.999 5.9 5.997 5.997 0 0 0 5.9.001zM2.719 6.055a3.254 3.254 0 0 1 .259-1.332l1.746.97a1.282 1.282 0 0 0 .011.656L3.022 7.376a3.263 3.263 0 0 1-.303-1.321zm2.984 3.213a3.284 3.284 0 0 1-2.319-1.289l1.713-1.028c.159.151.355.262.572.319l.034 1.998zm-.076-4.526a1.315 1.315 0 0 0-.561.337l-1.746-.97a3.281 3.281 0 0 1 2.274-1.365l.033 1.998zm.67-2.01a3.284 3.284 0 0 1 2.319 1.289L6.903 5.049a1.314 1.314 0 0 0-.573-.319l-.033-1.998zm.109 6.524l-.034-1.998c.216-.064.408-.181.562-.337l1.746.97a3.281 3.281 0 0 1-2.274 1.365zm2.616-1.979l-1.746-.97a1.282 1.282 0 0 0-.011-.656l1.713-1.027a3.263 3.263 0 0 1 .044 2.653z"/></svg>