<svg xmlns="http://www.w3.org/2000/svg" viewBox="0 0 373.9 199.3"><defs><clipPath id="a" transform="translate(-90.8 -178.2)"><rect x="81.5" y="81" transform="rotate(-45 277.522 277.447)" fill="none"/></clipPath></defs><title>Vector Smart Object3</title><g clip-path="url(#a)"><path d="M16.6 199.3h340.8a16.2 16.2 0 0 0 16.6-16.5V16.5C373.1 2.5 362.2 0 357.5 0H16.6C11.8 0 .9 2.5.1 16.5v166.3c.6 13.7 11.8 16.6 16.5 16.5zm16-166.9h26.6v34.8a16.5 16.5 0 0 0 33 0V32.4h36.9l-.5 63.1a16.5 16.5 0 0 0 33 0V32.4h34.6v34.8a16.5 16.5 0 1 0 33 0V32.4h38.4v63.1a16.5 16.5 0 0 0 33 0V32.4h40.8v134.5h-309zm0 0"/></g></svg>