<svg xmlns="http://www.w3.org/2000/svg"><path fill-rule="evenodd" d="M8.935 2.738L8.035.55A.899.899 0 0 0 7.2 0H1.8a.9.9 0 0 0-.836.55l-.9 2.188a.849.849 0 0 0 0 .649l.9 2.188a.9.9 0 0 0 .836.55h.45c0 .483.403.875.9.875h.45v.336c0 1.041.585 1.991 1.491 2.421.468.222.759.675.759 1.18 0 .699-.631 1.313-1.351 1.313-.744 0-1.349-.589-1.349-1.313a.888.888 0 0 0-.9-.875.888.888 0 0 0-.901.875c0 1.689 1.414 3.063 3.15 3.063 1.708 0 3.151-1.403 3.151-3.063 0-1.179-.678-2.234-1.769-2.752-.292-.139-.481-.472-.481-.849V7h.45c.497 0 .9-.392.9-.875h.45a.899.899 0 0 0 .835-.55l.9-2.188a.849.849 0 0 0 0-.649zM2.4 4.812h-.949l1.2-3.5H3.6l-1.2 3.5zm1.974 0h-.949l1.2-3.5h.949l-1.2 3.5zm1.974 0H5.4l1.2-3.5h.949l-1.201 3.5z"/></svg>