<svg xmlns="http://www.w3.org/2000/svg" viewBox="0 0 414.6 403.3"><defs><clipPath id="a" transform="translate(0 -6.6)"><path fill="none" d="M197 0h256.8v410.88H197z"/></clipPath></defs><g clip-path="url(#a)"><path d="M261 172.9a25.6 25.6 0 0 0 25.6 25.6h12.8v9.9c0 30.4 16.7 58.2 42.4 70.8a38.2 38.2 0 0 1 21.6 34.5c0 20.5-17.9 38.4-38.4 38.4a38.4 38.4 0 0 1-38.4-38.4 25.6 25.6 0 1 0-51.2 0 89.7 89.7 0 0 0 89.6 89.6c48.6 0 89.6-41 89.6-89.6a89 89 0 0 0-50.3-80.5c-8.3-4.1-13.7-13.8-13.7-24.8v-9.8h12.8a25.6 25.6 0 0 0 25.6-25.7zm116.6-38.4"/></g><path d="M374 40v94.4H40V40h334m20.8-40H19.2A19.2 19.2 0 0 0 0 19.2v136a19.2 19.2 0 0 0 19.2 19.2h375.6a19.2 19.2 0 0 0 19.2-19.2v-136A19.2 19.2 0 0 0 394.8 0z" fill="#0450a2"/></svg>