<svg xmlns="http://www.w3.org/2000/svg"><path fill-rule="evenodd" d="M14.435.565a1.856 1.856 0 0 0-1.358-.566H1.923c-.527 0-.98.189-1.358.566-.377.378-.566.83-.566 1.358v11.154c0 .527.189.98.566 1.357.378.378.831.567 1.358.567h11.154c.527 0 .98-.189 1.358-.567.377-.377.566-.83.566-1.357V1.923c0-.528-.189-.98-.566-1.358zm-9.049 4.84A2.945 2.945 0 0 1 7.51 4.55c.833 0 1.545.285 2.134.855.589.569.884 1.258.884 2.065 0 .808-.295 1.496-.884 2.066-.589.57-1.301.855-2.134.855a2.945 2.945 0 0 1-2.124-.855c-.59-.57-.884-1.258-.884-2.066 0-.807.294-1.496.884-2.065zm7.916 7.271a.57.57 0 0 1-.176.425.582.582 0 0 1-.42.171H2.265a.578.578 0 0 1-.425-.171.578.578 0 0 1-.171-.425V6.347h1.377c-.13.41-.195.837-.195 1.28 0 1.25.456 2.316 1.367 3.199.912.882 2.009 1.323 3.292 1.323a4.69 4.69 0 0 0 2.344-.606 4.556 4.556 0 0 0 1.699-1.645 4.33 4.33 0 0 0 .626-2.271c0-.443-.066-.87-.196-1.28h1.319v6.329zm0-8.722a.649.649 0 0 1-.196.479.65.65 0 0 1-.478.195h-1.7a.651.651 0 0 1-.478-.195.653.653 0 0 1-.196-.479V2.343a.66.66 0 0 1 .196-.474c.13-.133.29-.2.478-.2h1.7c.189 0 .348.067.478.2a.655.655 0 0 1 .196.474v1.611z"/></svg>