<svg xmlns="http://www.w3.org/2000/svg"><path fill-rule="evenodd" d="M7.791 8.478a4.048 4.048 0 0 1-1.46.991c-.521.212-1.092.319-1.657.39.085.098.125.145.178.202.768.809 1.538 1.616 2.303 2.429.261.277.315.62.172.942-.157.351-.509.583-.853.558-.218-.016-.388-.13-.539-.289-.579-.613-1.169-1.213-1.736-1.837-.166-.182-.245-.147-.391.01-.582.63-1.174 1.25-1.77 1.867-.267.277-.585.327-.895.169a.958.958 0 0 1-.524-.877c.012-.24.124-.424.281-.588.759-.797 1.517-1.595 2.274-2.393.05-.053.097-.109.17-.192C2.311 9.747 1.38 9.48.582 8.825c-.099-.082-.201-.16-.291-.251-.349-.353-.384-.756-.108-1.172.236-.355.633-.45 1.045-.246.08.04.156.089.229.142 1.486 1.073 3.527 1.102 5.019.048a1.35 1.35 0 0 1 .489-.266c.356-.096.688.042.879.369.219.374.216.738-.053 1.029zM3.973 7.086C2.131 7.079.619 5.474.63 3.535.641 1.575 2.153-.005 4.014 0c1.865.006 3.361 1.608 3.352 3.589-.009 1.935-1.531 3.504-3.393 3.497zm.028-5.276c-.923-.001-1.659.779-1.652 1.751.007.959.743 1.72 1.66 1.716.914-.003 1.642-.775 1.639-1.737-.003-.963-.733-1.729-1.647-1.73z"/></svg>