<svg xmlns="http://www.w3.org/2000/svg"><path fill-rule="evenodd" d="M12 11.323C12 12.475 8.889 13 6 13c-2.892 0-6-.525-6-1.677 0-1.17 3.062-1.523 4.407-1.621C3.273 7.885 1.84 5.33 1.84 4.016 1.84 1.801 3.704 0 5.997 0s4.158 1.801 4.158 4.016c0 1.314-1.434 3.869-2.568 5.686 1.346.098 4.41.451 4.413 1.621zM9.583 4.016c0-1.91-1.609-3.464-3.586-3.464-1.974 0-3.583 1.554-3.583 3.464 0 1.669 2.748 5.856 3.583 7.087.835-1.231 3.586-5.418 3.586-7.087zM7.252 10.23c-.546.852-.958 1.459-1.016 1.525-.184.21-.401.096-.475 0-.055-.071-.47-.673-1.016-1.525-2.911.162-4.174.796-4.174 1.09 0 .382 1.914 1.125 5.426 1.125 3.512 0 5.426-.74 5.429-1.125 0-.297-1.263-.928-4.174-1.09zM4.188 4.016c0-.965.81-1.748 1.809-1.748 1 0 1.81.783 1.81 1.748 0 .966-.81 1.749-1.81 1.749-.999 0-1.809-.783-1.809-1.749zm3.048 0c0-.66-.555-1.196-1.239-1.196s-1.238.536-1.238 1.196c0 .661.554 1.197 1.238 1.197.684 0 1.239-.536 1.239-1.197z"/></svg>