<svg xmlns="http://www.w3.org/2000/svg"><path fill-rule="evenodd" d="M12.641.184a5.56 5.56 0 0 1-1.694.613A2.73 2.73 0 0 0 9-.001c-1.473 0-2.667 1.131-2.667 2.525 0 .197.024.391.069.575C4.186 2.994 2.221 1.989.905.461c-.229.372-.36.806-.36 1.269 0 .876.471 1.65 1.186 2.102a2.788 2.788 0 0 1-1.208-.317v.031c0 1.224.919 2.244 2.139 2.477a2.838 2.838 0 0 1-1.205.042c.34 1.003 1.324 1.733 2.491 1.754A5.545 5.545 0 0 1 .636 8.9C.421 8.9.208 8.888 0 8.865a7.86 7.86 0 0 0 4.088 1.134c4.905 0 7.588-3.847 7.588-7.184l-.009-.327c.523-.355.976-.8 1.333-1.305a5.6 5.6 0 0 1-1.531.397A2.57 2.57 0 0 0 12.641.184z"/></svg>