<svg xmlns="http://www.w3.org/2000/svg"><path fill-rule="evenodd" d="M7.49 9.749H4.507c-.415 0-.767-.156-1.057-.47a1.61 1.61 0 0 1-.435-1.14V6.997h4.251c.383 0 .713-.148.988-.443.274-.296.411-.651.411-1.064 0-.414-.137-.768-.412-1.064a1.315 1.315 0 0 0-.992-.442H3.015V1.625A1.63 1.63 0 0 0 2.573.478a1.389 1.389 0 0 0-1.058-.479c-.422 0-.782.158-1.075.47C.146.782 0 1.167 0 1.627v6.512c0 1.34.44 2.484 1.321 3.434.882.952 1.945 1.426 3.188 1.426h2.982c.414 0 .769-.16 1.065-.478.296-.318.444-.701.444-1.147 0-.446-.148-.828-.444-1.147a1.406 1.406 0 0 0-1.066-.478z"/></svg>