<svg xmlns="http://www.w3.org/2000/svg"><path fill-rule="evenodd" d="M14.176 14.175a2.707 2.707 0 0 1-1.988.826H2.812a2.707 2.707 0 0 1-1.988-.826 2.708 2.708 0 0 1-.825-1.987V2.812c0-.775.275-1.438.825-1.988a2.71 2.71 0 0 1 1.988-.825h9.376a2.71 2.71 0 0 1 1.988.825c.55.55.825 1.213.825 1.988v9.376c0 .775-.275 1.437-.825 1.987zM5.644.926l-.498 1.905L4.628.926h-.761l.234.674.225.674c.228.671.377 1.185.449 1.543v1.964h.723V3.817L6.377.926h-.733zM8.32 3.339c0-.378-.068-.661-.205-.85a.908.908 0 0 0-.762-.371c-.332 0-.586.124-.761.371-.137.189-.205.472-.205.85v1.27c0 .377.068.661.205.849.175.248.429.372.761.372.32 0 .574-.124.762-.372.137-.175.205-.459.205-.849v-1.27zm2.423-1.172h-.655v2.764c-.143.202-.28.303-.41.303-.097 0-.15-.052-.156-.157a1.4 1.4 0 0 1-.01-.254V2.167h-.654v2.861c0 .242.019.421.058.538.072.176.212.263.42.263.234 0 .485-.146.752-.439v.391h.655V2.167zm1.943 5.469a1.337 1.337 0 0 0-.42-.718 1.322 1.322 0 0 0-.742-.337c-.885-.097-2.227-.146-4.024-.146-1.79 0-3.129.049-4.014.146a1.352 1.352 0 0 0-1.162 1.055c-.13.567-.196 1.413-.196 2.54 0 1.146.066 1.992.196 2.539.065.28.203.518.415.713.212.196.457.31.737.342.892.098 2.234.147 4.024.147 1.791 0 3.132-.049 4.024-.147a1.27 1.27 0 0 0 .737-.342 1.37 1.37 0 0 0 .416-.713c.13-.547.195-1.393.195-2.539 0-1.153-.062-1.999-.186-2.54zm-.781 4.523c-.176.26-.436.39-.781.39-.339 0-.603-.123-.792-.371-.136-.176-.205-.456-.205-.84v-1.26c0-.384.065-.664.196-.84.189-.247.449-.371.781-.371s.586.124.762.371c.136.183.205.462.205.84v.742h-1.299v.635c0 .332.111.498.332.498.156 0 .254-.084.293-.254l.005-.068c.003-.039.005-.093.005-.161v-.21h.664v.088c0 .189-.006.329-.019.42a.934.934 0 0 1-.147.391zm-1.133-1.876h.645v-.332c0-.332-.108-.498-.323-.498-.214 0-.322.166-.322.498v.332zm-1.738 2.266c-.228 0-.45-.133-.665-.4v.351h-.654V7.685h.654v1.573c.209-.261.43-.391.665-.391.266 0 .439.137.517.41.045.137.068.378.068.723v1.426c0 .339-.022.576-.068.713-.078.273-.251.41-.517.41zm-.059-2.608c0-.325-.094-.488-.283-.488-.111 0-.218.052-.323.156v2.188c.105.104.212.157.323.157.189-.001.283-.16.283-.479V9.941zm-2.471 2.168c-.254.293-.502.44-.742.44-.215 0-.352-.091-.411-.273-.039-.105-.058-.28-.058-.528V8.916h.644v2.637c0 .156.004.241.01.254.007.097.055.146.147.146.13 0 .267-.101.41-.302V8.916h.654V12.5h-.654v-.391zm-2.09.391h-.723V8.369h-.762v-.684h2.266v.684h-.781V12.5zm2.939-7.266c-.208 0-.312-.166-.312-.498V3.212c0-.339.104-.508.312-.508.209 0 .313.169.313.508v1.524c0 .332-.104.498-.313.498z"/></svg>